<?xml version="1.0" standalone="no"?>
<!DOCTYPE svg PUBLIC "-//W3C//DTD SVG 20010904//EN"
 "http://www.w3.org/TR/2001/REC-SVG-20010904/DTD/svg10.dtd">
<svg version="1.0" xmlns="http://www.w3.org/2000/svg"
 width="1440.000000pt" height="786.000000pt" viewBox="0 0 1440.000000 786.000000"
 preserveAspectRatio="xMidYMid meet">

<g transform="translate(0.000000,786.000000) scale(0.100000,-0.100000)"
fill="#000000" stroke="none">
<path d="M0 6390 c0 -973 3 -1470 10 -1470 6 0 10 -7 10 -15 0 -8 -4 -15 -10
-15 -5 0 -10 -18 -10 -40 0 -22 5 -40 10 -40 13 0 13 -57 0 -65 -15 -9 -14
-782 1 -791 7 -4 8 -19 3 -43 -4 -20 -9 -908 -11 -1973 l-3 -1938 7200 0 7200
0 0 3930 0 3930 -7200 0 -7200 0 0 -1470z m8470 607 c0 -8 -12 -19 -26 -26
l-27 -12 21 -19 c18 -17 36 -20 122 -20 60 0 100 -4 100 -10 0 -12 20 -10
-260 -28 -241 -14 -304 -52 -274 -164 7 -28 20 -58 30 -69 9 -10 14 -25 11
-33 -3 -8 0 -22 7 -31 11 -15 41 -18 267 -21 140 -3 268 -6 284 -8 17 -2 155
-52 308 -110 l277 -106 123 0 c116 0 126 -2 206 -35 46 -19 88 -32 92 -29 16
10 8 39 -30 109 -21 39 -77 147 -125 240 -48 94 -98 180 -110 193 -29 30 -135
58 -249 65 -48 4 -95 11 -105 17 -13 9 -8 10 26 8 25 -2 42 1 42 7 0 14 53 45
77 45 35 0 282 -88 315 -112 18 -13 78 -39 133 -57 55 -18 144 -48 197 -68 53
-19 105 -32 115 -29 12 4 36 -5 63 -22 57 -36 103 -52 149 -52 21 0 51 -10 71
-23 44 -30 1142 -400 1172 -395 32 4 34 39 5 66 -25 24 -155 76 -281 113 -80
23 -104 42 -182 144 -30 39 -97 124 -149 190 -52 66 -95 127 -95 136 0 10 17
26 38 37 20 10 74 40 120 65 45 25 82 43 82 39 -1 -4 -37 -34 -80 -66 -94 -70
-100 -90 -47 -153 114 -135 302 -345 317 -353 25 -13 291 -100 307 -100 8 0
42 -26 76 -58 l63 -59 469 -6 c460 -7 471 -6 495 13 14 11 36 26 50 33 14 6
30 19 37 27 11 13 12 13 13 -2 0 -10 8 -19 18 -19 15 -1 15 -2 -1 -6 -11 -3
-16 -11 -13 -19 3 -7 -6 -22 -19 -32 -22 -18 -55 -20 -501 -26 l-478 -8 -82
-73 c-45 -40 -96 -83 -113 -96 -17 -12 -33 -31 -36 -40 -3 -10 -16 -21 -27
-25 -12 -4 -38 -22 -57 -40 -20 -18 -47 -42 -61 -53 -17 -13 -22 -23 -15 -30
11 -10 79 -37 539 -206 160 -59 421 -156 582 -215 l292 -109 163 -2 c160 -1
164 0 182 23 10 12 35 43 55 67 20 24 39 47 42 52 7 10 92 14 250 10 89 -3
120 -6 90 -10 -35 -5 -40 -8 -22 -13 48 -14 18 -26 -81 -33 l-104 -7 -53 -78
c-29 -44 -62 -81 -74 -84 -11 -3 -109 -6 -217 -6 -212 0 -209 -1 -389 70 -41
16 -192 73 -335 125 -332 123 -521 193 -565 210 -88 35 -417 155 -424 155 -11
0 -76 -51 -166 -130 -41 -36 -147 -126 -235 -200 -88 -73 -180 -152 -205 -174
-25 -23 -58 -51 -74 -62 l-29 -21 28 -51 c16 -29 32 -52 37 -52 4 0 8 -8 8
-18 0 -11 13 -37 30 -60 26 -36 28 -43 15 -56 -8 -8 -15 -18 -15 -23 0 -4 -14
-16 -31 -25 -17 -10 -28 -22 -25 -27 4 -5 333 -8 813 -5 445 2 831 3 858 3 28
0 258 -2 513 -4 256 -3 462 -2 462 3 0 5 -11 14 -25 20 -14 6 -25 19 -25 28 0
14 7 15 42 10 47 -8 81 -33 74 -53 -3 -7 2 -14 12 -15 9 -1 -39 -5 -108 -8
-125 -5 -125 -5 -122 -29 4 -23 2 -24 -39 -18 -23 3 -55 15 -72 27 -28 21 -34
22 -193 15 -159 -7 -163 -8 -161 -29 2 -16 -4 -22 -27 -24 -30 -4 -106 25
-106 40 0 4 -29 8 -65 8 -56 0 -64 -2 -58 -17 6 -14 0 -15 -53 -9 -32 4 -63
11 -68 16 -6 6 -30 10 -56 10 -27 0 -40 -4 -32 -8 17 -12 5 -39 -20 -46 -23
-5 -118 31 -118 45 0 5 -130 9 -290 9 -225 0 -290 -3 -291 -12 0 -10 -2 -10
-6 0 -3 8 -35 12 -109 12 -76 0 -104 -3 -105 -12 0 -10 -2 -10 -6 0 -4 9 -79
12 -329 12 -293 0 -326 -2 -345 -17 -68 -55 -89 -77 -89 -89 0 -8 -6 -14 -13
-14 -8 0 -22 -9 -32 -21 -18 -19 -18 -22 -3 -52 33 -65 68 -150 68 -164 0 -8
-38 -52 -85 -98 -47 -46 -85 -88 -85 -93 0 -8 -44 -44 -91 -74 -15 -9 -30 -26
-34 -37 -3 -12 -12 -21 -18 -21 -7 0 -54 -41 -104 -90 -101 -97 -112 -123 -75
-171 11 -13 31 -53 45 -89 17 -43 32 -66 44 -68 43 -7 47 -11 29 -30 -21 -24
-20 -54 3 -100 10 -20 21 -51 25 -67 4 -17 23 -50 43 -74 39 -45 56 -85 102
-239 16 -52 39 -104 52 -118 13 -14 25 -43 30 -72 3 -26 16 -69 27 -97 11 -27
52 -149 92 -270 40 -121 81 -236 91 -257 12 -24 38 -48 79 -73 65 -40 109 -78
111 -98 7 -59 7 -57 -25 -57 -42 0 -56 -16 -56 -62 0 -78 54 -145 192 -236 68
-46 162 -130 225 -202 24 -28 17 -63 -9 -44 -17 14 -173 38 -192 31 -8 -3 -22
-19 -30 -35 -23 -44 2 -134 66 -240 59 -98 64 -123 50 -287 -4 -60 -5 -112 -1
-115 4 -3 8 -21 10 -40 2 -19 8 -38 14 -42 7 -5 6 -11 0 -17 -17 -17 -48 11
-75 66 -13 26 -41 73 -61 103 -20 30 -57 102 -81 159 -45 109 -101 181 -168
216 -30 15 -30 16 -30 104 0 86 -1 89 -32 120 -17 17 -39 31 -47 31 -19 0 -81
-37 -81 -48 0 -4 -14 -16 -30 -26 l-31 -18 7 -84 c5 -57 3 -84 -4 -84 -6 0
-14 9 -17 20 -3 11 -11 20 -16 20 -5 0 -22 28 -37 62 -46 100 -52 118 -52 142
0 41 -52 122 -134 211 -96 105 -143 134 -223 139 -70 4 -113 24 -144 67 -22
31 -22 32 -5 64 19 35 44 45 120 45 50 1 109 28 114 53 4 19 -60 87 -129 139
-45 33 -88 122 -100 206 -5 35 -14 73 -20 84 -23 43 -26 77 -19 194 7 116 6
120 -18 157 -24 36 -25 42 -14 83 11 39 10 50 -8 86 -11 23 -20 58 -20 77 0
20 -10 56 -21 81 -12 25 -22 68 -23 96 -1 38 -8 60 -27 85 -20 27 -24 38 -16
51 8 12 5 36 -14 95 -24 72 -29 80 -68 100 -23 13 -49 30 -57 38 -9 8 -21 15
-27 16 -61 4 -85 20 -63 42 24 23 19 43 -13 66 -33 24 -48 66 -29 88 10 12 8
18 -11 32 -20 15 -21 19 -7 24 23 9 20 26 -8 37 -34 13 -42 30 -17 37 27 7 24
38 -4 38 -13 0 -26 13 -37 35 -18 38 -9 61 17 40 12 -10 21 -8 50 14 19 15 35
31 35 36 0 6 13 16 29 22 25 11 109 76 250 194 l25 21 -23 72 c-12 39 -27 71
-32 71 -5 0 -9 12 -9 27 0 30 -39 93 -57 93 -7 0 -13 -4 -13 -10 0 -15 -47
-12 -53 3 -4 9 -8 8 -17 -3 -9 -11 -13 -12 -17 -2 -2 6 -19 12 -36 11 -31 -1
-31 -1 -7 -9 19 -6 11 -8 -33 -9 -36 -1 -56 3 -52 9 3 6 -1 10 -10 10 -9 0
-13 -4 -10 -10 3 -6 -4 -10 -17 -10 -13 0 -39 -9 -59 -19 l-35 -19 4 29 c3 22
0 29 -12 29 -9 0 -15 -5 -14 -11 2 -6 -12 -12 -31 -14 -41 -4 -117 -55 -115
-78 1 -9 -2 -14 -7 -11 -23 14 -169 -97 -169 -128 0 -8 7 -32 15 -51 8 -20 15
-49 15 -64 -1 -26 -1 -27 -12 -8 -7 11 -15 38 -19 60 -5 22 -11 52 -14 66 -6
24 -1 32 49 68 31 23 56 45 56 50 0 4 12 13 28 20 52 23 102 64 102 82 0 11
-7 19 -15 19 -8 0 -15 -4 -15 -8 0 -4 -16 -14 -35 -21 -48 -17 -97 -60 -91
-78 4 -9 1 -13 -6 -10 -7 2 -27 -2 -45 -10 -40 -16 -43 -16 -43 0 0 7 24 23
54 36 65 27 77 39 69 70 -4 15 -8 19 -13 10 -5 -6 -24 -17 -43 -24 -41 -14
-96 -55 -96 -71 -1 -7 -11 -14 -23 -17 -13 -2 -31 -8 -41 -12 -12 -5 -16 -3
-12 7 3 7 28 24 55 37 55 26 73 43 75 72 1 12 -5 19 -17 19 -10 0 -18 -4 -18
-8 0 -4 -16 -14 -35 -21 -20 -7 -54 -30 -77 -52 -22 -21 -50 -41 -62 -45 -11
-4 -24 -12 -28 -18 -5 -6 -8 -2 -8 11 0 14 8 24 23 28 31 10 107 58 107 69 0
5 8 15 18 22 15 12 13 13 -18 14 -26 0 -31 -3 -20 -10 12 -8 10 -10 -10 -10
-14 0 -43 -9 -63 -19 -22 -11 -34 -14 -27 -6 16 19 -4 28 -44 21 -46 -9 -122
-64 -107 -79 7 -7 7 -14 0 -23 -6 -8 -7 -27 0 -56 5 -23 17 -88 27 -143 9 -55
22 -111 27 -125 6 -14 11 -38 13 -55 2 -27 8 -55 34 -165 26 -107 33 -141 40
-200 5 -36 20 -135 35 -220 14 -85 30 -180 35 -211 5 -31 14 -68 20 -83 5 -15
10 -39 10 -54 0 -27 17 -112 51 -257 10 -45 19 -93 19 -108 0 -16 9 -49 19
-75 13 -31 21 -82 25 -152 6 -117 29 -223 57 -259 11 -13 19 -36 19 -52 0 -15
5 -31 10 -34 6 -3 10 -18 10 -32 0 -30 26 -63 48 -63 13 0 13 -2 -2 -13 -10
-7 -23 -38 -31 -68 -10 -47 -10 -62 2 -95 8 -21 17 -48 19 -59 3 -11 9 -29 14
-40 5 -11 11 -42 14 -70 14 -140 79 -254 168 -297 63 -30 70 -39 88 -118 18
-85 20 -90 35 -90 7 0 15 -6 18 -12 2 -8 18 1 41 24 21 21 40 38 42 38 17 0
85 -44 94 -59 28 -53 -64 -106 -116 -66 -34 26 -52 18 -65 -27 -9 -35 -8 -57
6 -118 9 -41 23 -117 31 -169 8 -52 18 -99 23 -105 5 -6 12 -42 16 -81 6 -65
6 -125 3 -420 -1 -60 0 -138 1 -173 2 -44 -2 -70 -13 -87 -16 -24 -46 -34 -46
-16 0 5 -18 29 -40 53 -44 48 -48 57 -54 143 -2 36 -16 90 -35 137 -17 43 -35
97 -40 120 -5 24 -21 104 -35 178 -42 213 -47 233 -65 270 -11 22 -20 70 -24
128 -4 68 -16 123 -44 209 -36 111 -40 118 -82 147 -106 73 -131 122 -175 341
-9 44 -21 103 -28 130 -6 28 -10 66 -10 85 2 53 -26 127 -56 149 -26 19 -26
20 -8 40 16 18 18 28 10 78 -4 32 -7 87 -6 122 1 44 -8 101 -29 185 -17 67
-35 159 -40 206 -20 200 -26 247 -34 260 -4 7 -12 52 -17 99 -4 47 -13 115
-18 151 -5 36 -14 97 -19 135 -10 73 -38 209 -48 235 -4 8 -8 35 -9 60 -1 25
-7 77 -13 115 -24 164 -32 216 -46 323 -8 62 -21 153 -30 203 -8 49 -15 100
-15 114 0 14 -9 34 -20 45 -11 11 -15 22 -10 25 6 4 10 17 10 30 0 13 5 27 10
30 20 12 -1 25 -41 25 -38 0 -39 -1 -39 -34 0 -18 7 -39 15 -46 11 -9 12 -16
4 -26 -6 -8 -8 -36 -5 -71 4 -39 3 -50 -3 -33 -5 14 -9 37 -10 53 -1 15 -10
36 -21 47 -11 11 -15 20 -10 20 13 0 13 73 0 86 -7 7 2 16 30 29 44 20 49 29
22 44 -22 12 -79 -19 -88 -47 -3 -9 -9 -24 -13 -32 -5 -8 -3 -31 4 -50 13 -37
5 -91 -8 -57 -3 9 -14 17 -24 17 -15 0 -15 1 2 14 16 11 17 19 9 47 -8 28 -16
35 -44 40 l-35 6 33 2 c17 0 32 5 32 10 0 5 21 21 46 36 59 35 46 45 -57 45
-78 0 -98 -10 -80 -39 5 -7 9 -40 10 -74 1 -42 6 -66 17 -73 12 -10 13 -12 0
-17 -11 -4 -12 -14 -5 -44 5 -21 8 -56 8 -78 -1 -35 -2 -37 -9 -15 -4 14 -8
42 -9 63 -1 21 -6 48 -13 60 -7 12 -12 40 -13 62 0 22 -2 66 -3 98 l-2 57 -79
0 c-44 0 -82 -3 -84 -7 -2 -5 -2 -25 0 -45 5 -38 6 -38 52 -40 l46 -1 -45 -6
c-36 -5 -46 -10 -48 -28 -2 -12 2 -31 7 -42 14 -26 4 -56 -14 -41 -9 7 -12 23
-8 46 3 20 1 40 -7 49 -17 20 -57 19 -69 -2 -8 -13 -13 -15 -19 -6 -4 7 -19
16 -32 22 l-25 10 23 0 c21 1 23 5 20 44 -3 39 -5 42 -35 45 l-32 3 3 -88 c1
-49 5 -94 9 -100 8 -13 -10 -29 -21 -19 -3 4 -5 27 -3 51 2 42 1 45 -23 45
-20 0 -26 -5 -26 -23 0 -12 7 -32 15 -44 13 -19 13 -22 -1 -27 -12 -5 -14 -17
-9 -63 3 -32 8 -105 11 -163 6 -114 11 -197 19 -275 2 -27 4 -69 4 -92 0 -24
6 -61 12 -83 l12 -41 13 31 c8 17 13 39 11 48 -1 9 2 19 7 22 13 7 36 -117 30
-155 -4 -23 0 -36 15 -49 20 -18 30 -17 63 6 25 18 40 -1 44 -54 2 -24 6 -59
8 -78 10 -71 18 -157 20 -225 1 -38 7 -79 12 -90 6 -11 11 -67 10 -125 -1 -89
-3 -105 -18 -108 -9 -2 -20 3 -25 10 -8 14 -22 120 -28 228 -12 190 -15 215
-34 241 -11 15 -17 30 -13 34 4 3 7 31 7 61 0 42 -3 54 -16 54 -12 0 -15 -13
-13 -72 1 -40 -3 -81 -8 -92 -7 -12 -6 -32 2 -61 9 -33 9 -48 0 -65 -11 -21
-12 -21 -31 -4 -22 20 -24 36 -7 63 15 24 -7 101 -29 101 -11 0 -12 -24 -7
-127 4 -71 9 -162 10 -203 5 -101 13 -248 19 -345 3 -44 7 -116 9 -160 11
-216 19 -276 40 -308 12 -18 27 -32 33 -32 23 0 26 -16 5 -30 -16 -12 -21 -25
-20 -58 1 -58 7 -77 24 -77 25 0 26 -25 3 -64 -20 -35 -21 -45 -14 -129 4 -51
9 -114 10 -142 2 -92 5 -104 29 -132 l24 -28 -21 -29 c-28 -40 -36 -222 -12
-288 35 -94 36 -106 21 -150 -16 -49 -8 -126 19 -178 14 -28 15 -34 2 -48 -44
-50 -48 -76 -51 -302 -4 -231 -1 -258 35 -356 l23 -61 -19 -64 c-10 -35 -29
-80 -41 -99 -12 -20 -36 -65 -54 -100 -41 -82 -76 -119 -113 -120 -41 0 -50
34 -48 171 l2 117 -28 21 c-15 11 -33 25 -40 31 -7 5 -16 10 -21 10 -6 0 -35
25 -66 56 -59 59 -69 89 -38 116 9 9 48 46 86 82 l69 65 -6 74 c-4 41 -11 87
-17 101 -5 15 -14 62 -20 104 -5 42 -14 95 -19 117 -6 22 -17 74 -25 115 -35
181 -39 216 -29 266 6 27 7 83 3 124 -4 41 -5 98 -2 126 3 36 -1 63 -15 95
-13 30 -17 54 -12 77 5 24 3 32 -7 32 -18 0 -18 11 1 36 18 24 19 65 1 89 -13
18 -14 18 -41 1 -22 -15 -29 -16 -36 -5 -5 8 -3 20 5 29 7 8 11 21 8 29 -3 10
1 12 17 8 14 -3 21 0 21 9 0 8 4 14 9 14 17 0 20 29 5 45 -14 13 -19 13 -44 0
-32 -17 -70 -65 -70 -90 0 -9 -5 -13 -10 -10 -6 3 -19 4 -29 0 -15 -5 -20 -15
-19 -45 0 -44 4 -47 33 -26 34 23 65 29 65 13 0 -9 -4 -17 -9 -19 -13 -5 -60
-84 -67 -115 -4 -15 -11 -34 -17 -41 -15 -19 0 -27 28 -14 21 10 25 9 25 -3 0
-8 -3 -15 -7 -15 -5 0 -21 -20 -36 -45 -16 -25 -33 -45 -37 -45 -14 0 -22 38
-12 57 12 21 1 94 -13 94 -5 -1 -13 -42 -16 -93 -4 -51 -15 -115 -24 -142 -18
-53 -15 -99 10 -126 20 -22 20 -80 0 -170 -9 -41 -21 -106 -26 -145 -6 -38
-17 -109 -25 -156 -8 -48 -14 -97 -14 -110 0 -36 -59 -216 -75 -229 -21 -17
-19 -93 4 -138 48 -96 41 -259 -13 -294 -23 -16 -53 -7 -75 22 -17 24 -22 44
-22 94 0 34 4 73 9 87 5 13 15 42 22 64 7 22 19 48 27 57 22 24 20 78 -4 129
-19 41 -45 145 -57 229 -3 19 -11 67 -17 106 -13 74 -11 95 25 293 11 62 15
167 16 420 0 184 5 376 10 426 5 49 14 248 21 440 6 193 13 353 15 357 3 4 5
130 5 280 0 150 5 336 10 413 5 77 12 199 15 270 3 72 7 166 9 210 16 268 21
471 13 482 -5 7 -5 14 1 17 6 4 9 46 8 99 l-2 92 -85 2 c-121 3 -122 2 -119
-60 2 -29 -1 -67 -5 -85 -5 -21 -4 -38 4 -46 7 -9 7 -15 1 -18 -6 -1 -15 -28
-20 -58 l-9 -55 -1 58 c-1 35 -5 57 -12 57 -8 0 -8 4 0 14 7 8 14 34 15 58 2
24 7 60 11 82 6 28 4 40 -6 47 -18 11 -230 11 -247 0 -17 -10 -29 -91 -14 -91
6 0 4 -12 -5 -30 -8 -17 -12 -42 -9 -55 3 -13 2 -27 -4 -30 -5 -3 -10 -17 -10
-31 0 -30 -17 -64 -31 -64 -6 0 -3 7 5 16 17 16 22 84 7 84 -5 0 -3 14 6 31 8
16 13 40 9 52 -3 11 -1 26 3 31 5 6 11 28 14 48 5 31 2 38 -14 43 -11 4 -31 4
-43 1 -21 -5 -24 -13 -30 -97 -4 -50 -5 -94 -2 -96 9 -10 -40 -50 -111 -92
-40 -23 -73 -43 -73 -44 0 -1 -12 -83 -26 -182 -14 -99 -27 -220 -29 -270 -3
-100 -12 -160 -28 -190 -6 -11 -14 -38 -18 -60 -4 -22 -12 -56 -18 -75 -27
-94 -50 -199 -51 -233 0 -68 -30 -241 -46 -265 -42 -65 -45 36 -5 196 30 119
47 327 28 339 -4 3 -6 22 -2 43 4 23 2 41 -4 45 -16 9 -5 130 15 160 8 13 13
33 10 43 -4 11 0 24 8 31 8 6 12 21 9 31 -3 11 0 26 6 34 7 8 10 19 9 26 -2 6
6 17 17 23 33 19 36 31 12 49 l-22 18 23 6 c12 4 24 16 27 28 2 11 11 64 20
116 9 52 22 101 27 108 6 7 40 29 75 48 35 20 68 44 73 55 13 23 42 188 35
198 -6 11 -137 13 -153 2 -7 -4 -15 -30 -16 -57 -2 -27 -7 -57 -11 -67 -4 -10
-5 -30 -2 -45 3 -16 0 -35 -9 -46 -8 -11 -14 -31 -15 -45 0 -14 -4 -35 -9 -46
-9 -23 -5 101 5 126 3 9 7 31 8 50 1 19 5 39 9 44 15 26 20 78 7 86 -22 13
-117 11 -126 -3 -7 -12 -22 -98 -28 -163 -1 -16 -5 -37 -9 -45 -3 -8 -12 -33
-20 -55 l-14 -40 5 50 c5 48 4 51 -23 64 -34 15 -232 154 -278 194 -17 15 43
-22 133 -84 92 -62 167 -107 172 -102 5 5 12 23 15 41 6 27 3 33 -19 41 -14 6
-79 48 -144 94 -191 135 -282 197 -298 203 -8 4 -29 19 -46 35 -17 16 -37 29
-44 29 -6 0 -20 9 -30 20 -10 11 -24 20 -30 20 -7 0 -15 7 -19 15 -3 8 -2 15
2 15 4 0 14 20 21 45 7 25 16 44 18 41 3 -3 0 -19 -6 -37 -21 -61 -15 -70 89
-130 15 -8 34 -22 43 -30 8 -8 52 -40 98 -72 247 -172 346 -237 360 -237 18 0
29 28 29 71 0 20 -12 34 -53 62 -31 22 -66 37 -83 37 -61 0 -72 40 -17 61 34
13 73 -2 73 -28 0 -25 80 -75 97 -61 10 8 13 6 13 -5 0 -14 21 -16 155 -16
170 0 162 -3 169 64 2 22 13 101 24 175 11 74 20 142 21 150 0 8 17 130 38
270 l38 255 50 26 c28 15 59 37 71 49 15 16 30 21 55 18 52 -5 42 -29 -19 -44
-59 -15 -104 -36 -118 -56 -12 -16 -79 -526 -70 -535 3 -3 2 -11 -3 -17 -12
-14 -44 -262 -38 -287 3 -11 1 -22 -4 -25 -5 -3 -9 -14 -9 -24 0 -17 12 -18
180 -19 135 -1 180 2 180 11 0 9 3 9 12 0 8 -8 48 -12 115 -12 l103 0 -1 28
c-2 36 10 309 17 398 l5 71 147 78 c81 43 176 95 212 115 36 21 164 90 285
155 121 64 223 121 226 127 3 5 0 53 -7 106 -7 53 -23 183 -35 287 -15 130
-26 195 -37 208 -14 16 -44 17 -363 17 -353 0 -399 -4 -399 -38 0 -7 9 -16 20
-19 21 -6 26 -18 11 -28 -10 -6 -41 21 -41 36 0 5 -7 9 -15 9 -9 0 -28 9 -43
20 -27 20 -39 21 -303 18 l-274 -3 -245 -103 c-135 -57 -267 -114 -295 -127
-173 -81 -229 -99 -318 -103 -74 -3 -91 -1 -108 14 -10 9 -19 23 -19 30 0 19
75 37 99 24 28 -14 65 -12 108 6 43 18 119 53 145 65 10 5 23 9 30 9 6 0 30 9
52 19 23 10 58 24 78 31 48 15 65 35 47 56 -10 13 -10 17 2 25 22 14 36 11 42
-11 3 -11 13 -20 22 -20 9 0 82 28 163 62 l147 63 720 5 720 5 2 80 c2 69 -6
148 -23 206 -9 32 -50 38 -266 38 -187 0 -221 -3 -282 -21 -68 -21 -80 -21
-605 -14 l-536 7 -95 -34 c-80 -29 -109 -35 -187 -36 -100 -1 -99 -1 -363 -98
-374 -138 -410 -149 -420 -133 -7 10 -5 18 5 26 8 6 154 61 323 122 l308 111
97 0 c54 0 105 5 115 10 9 5 51 20 92 33 l75 24 545 3 c343 1 560 6 585 13 23
6 177 11 370 13 l330 2 94 31 c109 37 121 38 121 14 0 -36 20 -42 109 -35 59
4 122 18 201 44 129 43 140 45 140 26z m510 -82 c0 -16 -9 -19 -34 -9 -25 9
-19 24 9 24 16 0 25 -6 25 -15z m95 5 c3 -5 3 -10 -2 -10 -4 0 -18 -3 -30 -6
-17 -5 -23 -2 -23 10 0 18 45 23 55 6z m-3735 -335 c0 -8 -4 -15 -10 -15 -5 0
-10 7 -10 15 0 8 5 15 10 15 6 0 10 -7 10 -15z m390 -65 c0 -5 -5 -10 -11 -10
-5 0 -7 5 -4 10 3 6 8 10 11 10 2 0 4 -4 4 -10z m-150 -20 c0 -5 -7 -10 -15
-10 -8 0 -15 5 -15 10 0 6 7 10 15 10 8 0 15 -4 15 -10z m-1070 -10 c8 -5 12
-12 9 -15 -8 -8 -39 5 -39 16 0 11 11 11 30 -1z m1174 -42 c12 2 25 8 31 13 5
5 22 9 38 9 22 0 28 -4 25 -17 -3 -15 -18 -19 -78 -25 -77 -7 -101 2 -78 29 9
11 14 11 26 1 8 -7 25 -11 36 -10z m1236 3 c0 -14 -18 -23 -30 -16 -6 4 -8 11
-5 16 8 12 35 12 35 0z m680 -6 c0 -8 -7 -15 -15 -15 -8 0 -15 7 -15 15 0 8 7
15 15 15 8 0 15 -7 15 -15z m-3730 -65 c0 -19 -83 -130 -97 -130 -7 0 -13 2
-13 4 0 5 66 106 80 124 13 15 30 16 30 2z m840 -4 c0 -3 -4 -8 -10 -11 -5 -3
-10 -1 -10 4 0 6 5 11 10 11 6 0 10 -2 10 -4z m-1104 -50 c5 -14 -145 -234
-183 -268 -32 -29 -209 -88 -264 -88 -35 0 -91 -15 -187 -50 l-137 -50 -507 0
-507 0 -108 -34 c-98 -31 -121 -35 -255 -38 -82 -2 -148 -3 -148 -1 0 1 15 10
33 19 22 12 72 20 162 25 109 6 147 13 238 43 l109 36 480 0 480 0 146 50 c91
31 163 50 191 50 25 0 75 11 111 25 62 24 68 29 147 133 90 119 118 148 148
155 36 9 46 7 51 -7z m54 -122 c0 -3 -29 -47 -64 -98 l-64 -92 -129 -47 c-102
-38 -141 -47 -190 -47 -49 0 -88 -10 -194 -49 -84 -30 -137 -55 -144 -67 -15
-27 -26 -34 -61 -34 -23 0 -33 5 -37 20 -5 20 -14 20 -464 22 l-458 1 510 12
510 11 128 47 c100 37 142 47 188 47 39 0 88 9 137 26 153 52 163 58 222 142
30 42 63 85 73 94 17 18 37 24 37 12z m910 -33 c0 -5 -7 -11 -15 -15 -8 -3
-15 -16 -15 -30 0 -16 -7 -25 -21 -29 -17 -5 -19 -9 -10 -25 8 -16 7 -21 -5
-26 -29 -11 -64 -6 -64 9 0 8 7 15 15 15 9 0 15 9 15 24 0 16 7 27 20 31 11 3
20 14 20 24 0 10 3 21 7 24 10 10 53 8 53 -2z m7797 -97 c-3 -3 -12 -4 -19 -1
-8 3 -5 6 6 6 11 1 17 -2 13 -5z m99 -84 c15 -6 25 -13 22 -15 -3 -3 -20 1
-39 9 -38 17 -25 21 17 6z m-198 -32 c2 -11 -3 -18 -12 -18 -9 0 -16 5 -16 10
0 6 -10 15 -22 20 -20 8 -18 9 12 7 24 -1 36 -7 38 -19z m-153 -19 c5 -5 -13
-9 -43 -9 -48 0 -62 7 -45 23 8 9 75 -2 88 -14z m-5090 -19 c0 -16 -45 -26
-72 -16 -13 5 -13 9 -2 22 16 19 74 15 74 -6z m192 5 c7 -21 1 -26 -36 -27
-37 -1 -46 5 -38 27 4 9 19 15 37 15 18 0 33 -6 37 -15z m-3567 -39 c0 -17
-60 -30 -74 -16 -8 8 -6 14 4 20 23 15 70 12 70 -4z m8750 -6 c0 -5 -4 -10 -9
-10 -6 0 -13 5 -16 10 -3 6 1 10 9 10 9 0 16 -4 16 -10z m47 -16 c3 -8 -4 -25
-16 -38 -11 -12 -21 -27 -21 -33 0 -6 54 -67 120 -135 66 -67 120 -126 120
-129 0 -3 -6 -13 -13 -23 -11 -15 -31 -18 -147 -19 -74 0 -143 3 -152 9 -11 6
30 8 118 6 137 -4 169 3 162 34 -2 8 -43 55 -93 106 -49 51 -103 108 -120 126
l-30 33 27 21 c23 16 26 23 18 39 -9 15 -7 19 5 19 9 0 18 -7 22 -16z m-8047
-18 c0 -18 -60 -40 -73 -27 -5 5 -7 17 -4 25 8 21 77 22 77 2z m-415 -6 c8
-12 -53 -40 -72 -33 -17 7 -17 30 0 36 22 9 66 7 72 -3z m149 -9 c8 -12 -13
-28 -46 -36 -21 -5 -29 -3 -34 10 -4 10 -1 21 7 26 18 11 66 12 73 0z m454 -8
c-4 -23 -54 -39 -73 -23 -23 19 0 40 42 40 27 0 34 -4 31 -17z m-1531 -30 c5
-13 -54 -33 -74 -25 -17 5 -7 21 21 32 27 11 48 8 53 -7z m250 1 c5 -14 -52
-35 -73 -27 -21 8 -12 26 17 34 32 9 51 7 56 -7z m249 5 c10 -16 -7 -28 -45
-31 -40 -4 -53 18 -19 31 32 13 56 13 64 0z m259 -29 c0 -17 -46 -36 -69 -27
-19 8 -11 34 12 40 30 9 57 2 57 -13z m-2197 -27 c-27 -2 -69 -2 -95 0 -27 2
-5 3 47 3 52 0 74 -1 48 -3z m1817 -43 c8 -14 -40 -42 -66 -38 -12 2 -24 9
-27 16 -7 22 80 44 93 22z m8499 -46 c26 -9 45 -18 42 -21 -6 -6 -78 16 -90
28 -14 12 -6 11 48 -7z m-7119 -14 c8 -13 -22 -31 -55 -32 -37 -1 -57 14 -38
29 25 21 81 22 93 3z m120 -68 c-8 -8 -25 10 -19 20 4 6 9 5 15 -3 4 -7 6 -15
4 -17z m7242 -7 c46 -16 81 -30 79 -32 -5 -6 -158 45 -176 58 -19 14 -15 13
97 -26z m-7177 -31 c0 -8 -4 -12 -10 -9 -5 3 -10 10 -10 16 0 5 5 9 10 9 6 0
10 -7 10 -16z m232 -26 c-7 -7 -12 -8 -12 -2 0 14 12 26 19 19 2 -3 -1 -11 -7
-17z m179 -5 c-8 -15 -10 -15 -11 -2 0 17 10 32 18 25 2 -3 -1 -13 -7 -23z
m-311 7 c0 -5 -5 -10 -11 -10 -5 0 -7 5 -4 10 3 6 8 10 11 10 2 0 4 -4 4 -10z
m80 6 c0 -3 -4 -8 -10 -11 -5 -3 -10 -1 -10 4 0 6 5 11 10 11 6 0 10 -2 10 -4z
m160 0 c0 -3 -4 -8 -10 -11 -5 -3 -10 -1 -10 4 0 6 5 11 10 11 6 0 10 -2 10
-4z m150 0 c0 -3 -4 -8 -10 -11 -5 -3 -10 -1 -10 4 0 6 5 11 10 11 6 0 10 -2
10 -4z m90 0 c0 -3 -4 -8 -10 -11 -5 -3 -10 -1 -10 4 0 6 5 11 10 11 6 0 10
-2 10 -4z m513 -39 c-3 -5 -9 -3 -14 4 -4 7 -5 17 -2 22 3 5 9 3 14 -4 4 -7 5
-17 2 -22z m-4963 -1 c0 -11 -19 -15 -25 -6 -3 5 1 10 9 10 9 0 16 -2 16 -4z
m-229 -57 c-17 -14 -33 -18 -49 -14 -15 4 -21 2 -17 -5 3 -5 1 -10 -6 -10 -8
0 -9 -3 0 -14 9 -10 -1 -24 -45 -65 -32 -28 -59 -49 -62 -46 -3 3 -14 -2 -24
-12 -10 -9 -18 -11 -18 -5 0 6 9 17 20 25 11 8 17 17 13 21 -4 4 1 4 11 0 13
-5 17 -4 13 3 -4 6 -4 19 -1 28 5 12 14 15 33 10 21 -5 24 -4 14 6 -18 18 -16
27 4 25 10 0 19 7 21 18 7 32 25 45 49 35 14 -5 25 -4 29 3 4 6 3 8 -4 4 -6
-3 -13 -2 -17 4 -4 6 7 10 27 10 l33 -1 -24 -20z m4480 -6 c-12 -20 -14 -14
-5 12 4 9 9 14 11 11 3 -2 0 -13 -6 -23z m843 1 c4 -10 1 -14 -6 -12 -15 5
-23 28 -10 28 5 0 13 -7 16 -16z m-267 -30 c11 -30 -51 -53 -83 -30 -15 12
-16 16 -5 30 18 21 80 21 88 0z m-5097 -4 c0 -5 -2 -10 -4 -10 -3 0 -8 5 -11
10 -3 6 -1 10 4 10 6 0 11 -4 11 -10z m4321 -21 c-5 -13 -10 -19 -10 -12 -1
15 10 45 15 40 3 -2 0 -15 -5 -28z m-2631 1 c23 -16 -23 -50 -66 -50 -45 0
-46 26 -1 45 39 17 48 18 67 5z m186 -22 c11 -18 -34 -48 -72 -48 -45 0 -46
26 -1 45 40 18 64 19 73 3z m3321 -20 c-3 -7 -5 -2 -5 12 0 14 2 19 5 13 2 -7
2 -19 0 -25z m-4924 -4 c-5 -14 -33 -27 -41 -19 -3 3 1 5 9 5 10 1 9 5 -5 15
-17 13 -16 14 12 13 20 -1 29 -5 25 -14z m277 7 c0 -16 -28 -32 -64 -38 -28
-4 -36 -2 -36 9 0 8 10 20 23 26 27 13 77 15 77 3z m240 0 c0 -15 -27 -32 -63
-38 -42 -6 -55 10 -25 31 24 17 88 22 88 7z m1480 -1 c23 -16 -23 -50 -66 -50
-45 0 -46 26 -1 45 39 17 48 18 67 5z m220 0 c24 -17 -23 -50 -71 -50 -37 0
-39 1 -29 21 18 33 71 48 100 29z m184 4 c41 -16 -6 -54 -65 -54 -23 0 -30 4
-27 17 5 29 58 50 92 37z m1630 -21 c-3 -16 -10 -37 -15 -48 -10 -24 -23 -60
-101 -288 -33 -97 -63 -176 -65 -174 -2 3 26 92 62 198 36 107 66 196 66 199
1 3 5 15 10 28 5 13 9 26 9 29 0 9 33 83 37 83 2 0 1 -12 -3 -27z m-4090 -22
c-2 -2 -11 -1 -20 3 -14 5 -14 9 -3 22 12 14 14 14 20 -3 3 -10 5 -20 3 -22z
m5673 -13 c-2 -13 -4 -5 -4 17 -1 22 1 32 4 23 2 -10 2 -28 0 -40z m-1948 -14
c-6 -8 -9 -17 -6 -20 3 -4 -1 -13 -9 -22 -13 -12 -13 -16 -2 -23 9 -6 7 -9 -9
-9 -21 0 -21 1 -7 28 7 15 14 35 14 45 0 9 5 17 10 17 6 0 11 8 11 18 1 16 2
16 6 -1 3 -10 -1 -25 -8 -33z m-141 23 c9 -10 4 -17 -18 -31 -31 -18 -37 -30
-20 -41 18 -11 10 -26 -21 -39 -40 -17 -79 -9 -79 15 0 11 4 19 8 19 5 0 17 6
27 14 17 12 18 16 5 31 -13 15 -12 19 5 31 24 18 79 18 93 1z m1272 -2 c10
-12 10 -18 0 -30 -21 -25 -100 -17 -100 11 0 31 77 46 100 19z m-915 -5 c3 -5
-1 -10 -10 -10 -9 0 -13 5 -10 10 3 6 8 10 10 10 2 0 7 -4 10 -10z m77 -8 c-7
-2 -12 -12 -12 -22 0 -22 -16 -35 -24 -21 -4 5 -1 13 5 16 5 4 8 13 5 20 -5
15 13 26 29 17 5 -3 4 -7 -3 -10z m162 -3 c-3 -5 -10 -7 -15 -3 -5 3 -7 10 -3
15 3 5 10 7 15 3 5 -3 7 -10 3 -15z m787 -25 c-5 -21 -9 -30 -10 -19 -1 24 10
67 15 62 3 -2 0 -22 -5 -43z m-1131 32 c0 -9 -30 -14 -35 -6 -4 6 3 10 14 10
12 0 21 -2 21 -4z m498 -35 c-12 -4 -29 20 -21 32 3 4 11 0 18 -10 9 -12 10
-19 3 -22z m1077 28 c12 -19 -5 -23 -22 -6 -16 16 -16 17 -1 17 9 0 20 -5 23
-11z m-1988 -26 c2 -5 -8 -15 -21 -22 -49 -27 -114 -9 -87 23 21 26 100 25
108 -1z m382 -14 c-16 -10 -23 -4 -14 10 3 6 11 8 17 5 6 -4 5 -9 -3 -15z
m116 2 c-3 -6 -11 -8 -17 -5 -6 4 -5 9 3 15 16 10 23 4 14 -10z m244 -7 c-6
-7 -9 -20 -6 -28 3 -8 0 -17 -8 -20 -7 -2 -16 2 -19 10 -3 8 -1 14 4 14 6 0
10 8 10 18 0 22 9 33 22 26 5 -3 4 -12 -3 -20z m-4574 -16 c-2 -18 -1 -27 2
-20 8 20 25 13 18 -8 -5 -16 -3 -19 12 -13 17 6 17 5 0 -15 -11 -12 -25 -18
-35 -15 -11 5 -14 2 -10 -9 5 -11 -19 -40 -74 -92 -69 -65 -83 -74 -97 -64
-14 11 -14 11 -3 -4 11 -14 10 -19 -10 -32 -22 -14 -194 -77 -248 -91 -24 -6
-24 -5 -6 9 11 9 28 16 37 16 10 0 20 4 23 9 3 4 -7 6 -22 4 -16 -2 -7 4 23
17 28 11 56 18 63 15 8 -3 10 0 6 7 -5 8 -2 9 9 5 10 -3 17 -3 17 1 0 5 20 21
45 36 25 16 45 33 45 38 0 5 5 6 10 3 6 -3 10 0 10 9 0 8 13 20 29 27 16 7 28
16 26 19 -2 3 5 11 16 18 11 7 19 8 19 2 0 -5 -4 -10 -10 -10 -5 0 -10 -5 -10
-12 0 -6 9 -3 20 7 11 10 20 24 20 32 0 7 5 13 11 13 6 0 9 -7 5 -15 -4 -12
-2 -13 14 -2 18 11 18 12 3 18 -12 4 -13 8 -5 13 16 10 15 56 0 57 -7 0 -3 4
10 9 12 6 22 18 22 30 0 11 4 20 9 20 5 0 8 -15 6 -32z m6076 -83 c-3 -14 -6
-16 -9 -5 -3 8 -10 18 -16 22 -8 5 -7 8 2 8 7 0 13 16 14 43 l1 42 6 -45 c4
-25 4 -54 2 -65z m-5251 82 c0 -18 -43 -37 -81 -37 -20 0 -29 4 -27 13 11 30
108 52 108 24z m4000 9 c0 -2 3 -11 6 -20 9 -23 -13 -20 -26 4 -9 16 -8 20 5
20 8 0 15 -2 15 -4z m-615 -16 c3 -6 -4 -10 -17 -10 -18 0 -20 2 -8 10 19 12
18 12 25 0z m115 0 c0 -5 -7 -10 -16 -10 -8 0 -12 5 -9 10 3 6 10 10 16 10 5
0 9 -4 9 -10z m69 -11 c-7 -4 -17 -5 -22 -2 -5 3 -3 9 4 14 7 4 17 5 22 2 5
-3 3 -9 -4 -14z m-3779 5 c0 -16 -35 -37 -72 -41 -32 -5 -40 -3 -36 8 2 8 15
20 29 26 24 13 79 18 79 7z m4026 -20 c-4 -15 -2 -32 5 -40 10 -12 9 -13 -4
-8 -12 4 -20 -10 -37 -66 -12 -40 -23 -70 -26 -68 -2 3 6 37 18 78 22 72 22
73 2 87 -18 15 -18 15 3 9 16 -5 23 -2 28 14 9 29 18 25 11 -6z m724 -24 c-4
-3 -14 -39 -23 -80 -10 -44 -14 -55 -10 -25 4 28 7 65 8 83 0 17 3 32 8 32 4
0 7 8 8 18 0 14 2 14 8 -3 5 -11 5 -22 1 -25z m-5050 17 c0 -15 -41 -37 -69
-37 -29 0 -33 13 -9 32 27 21 78 24 78 5z m-363 -24 c2 -6 -6 -13 -17 -16 -16
-4 -19 -2 -11 7 6 7 7 16 3 21 -4 4 -1 6 7 3 8 -2 16 -9 18 -15z m5555 -37
c-3 -5 -11 -1 -19 9 -10 15 -10 20 -1 27 14 8 29 -20 20 -36z m-1441 -3 c-12
-20 -14 -14 -5 12 4 9 9 14 11 11 3 -2 0 -13 -6 -23z m625 -15 c-6 -4 -14 0
-17 10 -4 9 -1 20 5 24 6 4 14 0 17 -10 4 -9 1 -20 -5 -24z m884 -15 c0 -7
-39 17 -46 28 -3 6 5 3 20 -6 14 -10 26 -19 26 -22z m488 -97 c-13 -17 -16 -2
-9 59 l6 60 5 -55 c3 -30 2 -59 -2 -64z m-5568 95 c0 -23 -77 -55 -106 -44
-22 8 -17 19 19 37 35 17 87 21 87 7z m208 -3 c-7 -20 -50 -38 -83 -36 -36 3
-37 18 -4 35 32 17 92 17 87 1z m3565 -3 c-3 -9 -8 -14 -10 -11 -3 3 -2 9 2
15 9 16 15 13 8 -4z m527 -33 l25 -25 -31 16 c-17 9 -36 23 -44 32 -21 25 20
7 50 -23z m6511 21 c43 -25 34 -48 -19 -47 -45 1 -84 27 -75 50 7 19 59 18 94
-3z m-7290 -70 c-12 -20 -14 -14 -5 12 4 9 9 14 11 11 3 -2 0 -13 -6 -23z
m-2663 -6 c3 -12 -7 -22 -33 -33 -70 -29 -113 -1 -53 36 39 24 81 23 86 -3z
m4437 13 c3 -5 -3 -10 -15 -10 -12 0 -18 5 -15 10 3 6 10 10 15 10 5 0 12 -4
15 -10z m-1279 -241 c-64 -220 -90 -299 -102 -299 -3 0 -3 12 0 28 10 46 160
501 164 498 1 -2 -26 -104 -62 -227z m7835 211 c29 -16 25 -50 -7 -50 -31 0
-106 39 -98 52 7 11 81 10 105 -2z m-11753 -23 c6 -29 -98 -62 -114 -36 -9 16
19 40 57 49 43 10 53 7 57 -13z m11196 14 c4 -5 -3 -7 -14 -4 -23 6 -26 13 -6
13 8 0 17 -4 20 -9z m1029 -5 c4 -10 1 -13 -9 -9 -15 6 -19 23 -5 23 5 0 11
-7 14 -14z m-12683 -11 c0 -18 -50 -45 -85 -45 -35 0 -32 24 8 44 41 20 77 21
77 1z m12760 -6 c0 -5 -4 -9 -10 -9 -5 0 -10 7 -10 16 0 8 5 12 10 9 6 -3 10
-10 10 -16z m-12585 -9 c8 -14 -54 -50 -87 -50 -40 0 -43 17 -6 40 35 21 83
27 93 10z m545 -51 c15 -28 5 -23 -15 7 -9 15 -12 23 -6 20 6 -4 16 -16 21
-27z m-109 4 c13 -16 12 -17 -3 -4 -17 13 -22 21 -14 21 2 0 10 -8 17 -17z
m3961 -74 c-11 -41 -41 -150 -67 -244 -26 -93 -47 -182 -46 -198 1 -16 -5 -30
-13 -33 -9 -3 -14 -18 -14 -37 1 -35 -6 -70 -19 -90 -4 -6 -6 -19 -5 -28 3
-20 -33 -54 -43 -40 -8 14 3 51 16 51 6 0 6 7 -1 19 -7 13 -7 22 0 26 5 3 10
17 10 30 0 13 7 28 16 33 12 7 15 17 11 33 -4 14 -1 30 8 39 7 8 27 65 44 125
17 61 44 157 61 215 18 58 36 122 42 143 6 21 13 36 15 33 2 -2 -5 -37 -15
-77z m-95 49 c-3 -8 -6 -5 -6 6 -1 11 2 17 5 13 3 -3 4 -12 1 -19z m-176 -29
c-5 -13 -10 -19 -10 -12 -1 15 10 45 15 40 3 -2 0 -15 -5 -28z m143 -90 c-40
-153 -87 -299 -95 -299 -4 0 -3 19 2 43 14 62 110 360 114 355 3 -2 -7 -47
-21 -99z m2633 85 c-3 -3 -12 -4 -19 -1 -8 3 -5 6 6 6 11 1 17 -2 13 -5z
m-6788 -13 c12 -8 12 -12 2 -25 -16 -19 -83 -38 -105 -30 -24 9 -2 42 37 53
42 12 49 12 66 2z m-439 -10 c0 -18 -44 -41 -77 -41 -37 0 -43 14 -13 30 16 9
20 8 20 -5 0 -17 16 -20 26 -4 3 6 0 15 -7 20 -10 6 -4 9 19 9 17 0 32 -4 32
-9z m4275 -180 c-31 -94 -61 -173 -65 -176 -5 -3 -3 16 4 42 19 69 108 314
113 310 2 -3 -21 -82 -52 -176z m8405 159 c-7 -4 -9 -13 -6 -19 12 -18 -10
-12 -28 8 -13 15 -14 20 -4 23 21 7 52 -3 38 -12z m-12506 -15 c-7 -17 -88
-50 -103 -40 -18 11 -13 24 17 39 37 20 93 21 86 1z m2476 -40 c49 -49 59 -55
97 -55 23 0 45 -5 48 -10 11 -18 -4 -47 -31 -58 -57 -27 -106 -4 -84 39 11 19
6 27 -46 80 -32 33 -54 59 -48 59 5 0 34 -25 64 -55z m10078 43 c15 -15 16
-31 1 -26 -6 2 -10 7 -9 12 1 5 -4 13 -12 17 -7 5 -8 9 -2 9 5 0 15 -5 22 -12z
m-8322 -95 c-29 -101 -67 -206 -73 -199 -2 2 1 24 7 47 14 58 83 249 87 245 2
-2 -7 -44 -21 -93z m2609 38 c-10 -25 -28 14 -19 42 l7 22 9 -25 c5 -13 6 -31
3 -39z m832 35 c-10 -22 -20 -28 -54 -36 -4 -1 -9 3 -11 9 -2 7 52 44 75 51 0
0 -4 -11 -10 -24z m606 -16 c7 0 4 -5 -6 -11 -27 -16 -45 4 -26 27 13 16 14
16 17 1 2 -10 9 -17 15 -17z m2791 19 c30 -14 42 -39 24 -51 -41 -26 -142 24
-111 55 10 11 60 8 87 -4z m-10078 -30 c3 -6 -3 -20 -14 -32 -27 -26 -105 -31
-110 -6 -6 29 107 64 124 38z m248 -8 c18 -28 -31 -61 -90 -61 -28 0 -35 4
-32 18 6 32 107 68 122 43z m223 -17 c9 -24 -20 -46 -71 -51 -42 -5 -46 -4
-46 15 0 40 103 72 117 36z m-1287 -28 c0 -30 -89 -62 -104 -37 -6 9 20 35 44
44 29 11 60 7 60 -7z m7479 -61 c0 -20 0 -20 -14 -1 -8 11 -15 34 -14 50 l1
31 13 -30 c8 -16 14 -39 14 -50z m138 33 c-3 -7 -5 -2 -5 12 0 14 2 19 5 13 2
-7 2 -19 0 -25z m-63 -23 c5 -28 4 -29 -9 -11 -8 11 -15 29 -15 40 0 29 18 8
24 -29z m420 29 c23 -22 20 -39 -9 -58 -23 -15 -27 -15 -62 1 -39 19 -55 50
-31 64 22 14 85 10 102 -7z m4099 5 c22 -12 37 -28 37 -40 0 -17 -38 -18 -87
-3 -43 14 -56 14 -68 4 -9 -7 -19 -9 -23 -5 -4 4 -1 10 7 13 7 2 21 13 30 22
18 21 72 25 104 9z m-5503 -21 c0 -16 -3 -19 -11 -11 -6 6 -8 16 -5 22 11 17
16 13 16 -11z m500 -9 c0 -11 -4 -17 -10 -14 -5 3 -10 15 -10 26 0 11 5 17 10
14 6 -3 10 -15 10 -26z m640 -2 c0 -18 -2 -19 -10 -7 -13 20 -13 43 0 35 6 -3
10 -16 10 -28z m-8010 8 c0 -8 -7 -15 -15 -15 -16 0 -20 12 -8 23 11 12 23 8
23 -8z m8420 -16 c0 -18 -18 -9 -23 12 -4 16 -3 18 9 8 8 -6 14 -15 14 -20z
m-493 -11 c-3 -8 -6 -5 -6 6 -1 11 2 17 5 13 3 -3 4 -12 1 -19z m-8007 2 c0
-5 -5 -10 -11 -10 -5 0 -7 5 -4 10 3 6 8 10 11 10 2 0 4 -4 4 -10z m4189 -94
c-12 -36 -25 -64 -27 -61 -2 2 6 34 19 69 12 36 25 64 27 61 2 -2 -6 -34 -19
-69z m8111 60 c0 -3 -4 -8 -10 -11 -5 -3 -10 -1 -10 4 0 6 5 11 10 11 6 0 10
-2 10 -4z m-3781 -56 c1 -13 0 -13 -9 0 -5 8 -9 24 -9 35 l0 20 9 -20 c5 -11
9 -27 9 -35z m-2898 23 c-12 -23 -32 -154 -25 -165 3 -5 2 -17 -2 -26 -4 -9
-9 -39 -11 -67 -1 -27 -5 -68 -8 -90 -3 -22 -7 -56 -9 -75 -7 -78 -19 -146
-28 -157 -13 -17 -35 -17 -41 0 -6 16 11 127 23 149 6 10 10 31 10 46 0 16 3
32 8 36 4 4 8 17 9 29 1 12 4 38 8 57 3 19 6 48 6 64 0 16 3 34 8 40 5 6 12
41 16 79 4 38 13 74 22 82 19 20 25 19 14 -2z m1729 -24 c0 -18 -4 -28 -10
-24 -5 3 -10 20 -10 36 0 18 4 28 10 24 6 -3 10 -20 10 -36z m200 -1 c0 -10
-4 -18 -10 -18 -5 0 -10 15 -10 33 0 24 3 28 10 17 5 -8 10 -23 10 -32z m568
-33 c0 -5 -6 4 -13 20 -8 17 -14 37 -14 45 0 8 7 -1 14 -20 7 -19 13 -39 13
-45z m-158 22 c0 -10 -4 -15 -10 -12 -5 3 -10 18 -10 33 0 21 2 24 10 12 5 -8
10 -23 10 -33z m386 -14 c-8 -20 -12 -16 -20 27 -6 34 -6 35 10 12 9 -13 13
-30 10 -39z m-4475 25 c-5 -13 -12 -32 -15 -42 -4 -10 -9 -16 -12 -14 -6 6 22
78 30 78 3 0 2 -10 -3 -22z m223 -27 c-9 -23 -18 -40 -20 -38 -2 2 4 22 13 45
9 23 18 40 20 38 2 -2 -4 -22 -13 -45z m2866 17 c0 -18 -2 -20 -9 -8 -6 8 -7
18 -5 22 9 14 14 9 14 -14z m-2997 -18 c-3 -11 -10 -23 -16 -27 -5 -3 -8 -2
-5 3 3 5 8 17 11 27 9 24 16 22 10 -3z m-269 -10 c4 -4 3 -23 -4 -42 -12 -33
-13 -33 -64 -28 -49 5 -51 6 -51 35 0 25 5 32 35 42 34 11 66 9 84 -7z m2248
3 c23 -21 23 -28 -4 -53 -22 -20 -26 -40 -28 -118 0 -16 -9 -26 -30 -34 -17
-5 -30 -14 -30 -18 0 -4 -16 -17 -36 -29 -26 -16 -34 -26 -29 -40 7 -24 -22
-51 -35 -31 -5 8 -5 21 -1 28 5 8 6 23 4 33 -4 13 3 22 21 30 14 7 26 18 26
25 0 7 13 15 29 19 37 8 47 20 55 71 5 37 3 42 -19 52 -34 16 -41 39 -20 62
22 24 72 26 97 3z m-5007 -17 c0 -24 -66 -60 -95 -51 -33 11 -24 41 18 59 47
20 77 17 77 -8z m11827 -9 c-3 -16 1 -18 27 -12 24 5 31 3 31 -9 0 -21 -42
-21 -85 0 -40 19 -37 47 4 42 19 -2 25 -8 23 -21z m-9951 -44 l24 -27 -32 23
c-33 23 -40 31 -25 31 5 0 19 -12 33 -27z m5249 -15 c0 -9 5 -18 12 -20 7 -3
9 -12 5 -22 -12 -32 -37 1 -37 48 0 30 3 37 10 26 5 -8 10 -22 10 -32z m2866
24 c12 -9 27 -27 33 -39 10 -19 8 -22 -19 -28 -51 -11 -110 4 -122 30 -6 13
-8 31 -5 39 9 22 85 21 113 -2z m-3969 -14 c-3 -8 -6 -5 -6 6 -1 11 2 17 5 13
3 -3 4 -12 1 -19z m1027 -10 c25 -49 18 -76 -12 -46 -11 11 -18 78 -8 78 3 0
12 -14 20 -32z m-910 -40 c-3 -4 -9 -8 -15 -8 -11 0 -12 53 -2 64 9 9 25 -43
17 -56z m297 35 c7 -18 6 -30 -1 -37 -14 -14 -28 6 -24 37 4 37 11 37 25 0z
m204 -15 c6 -22 4 -28 -9 -28 -12 0 -16 10 -16 37 0 41 14 36 25 -9z m332 12
c12 -33 1 -49 -21 -31 -13 11 -10 61 3 61 4 0 12 -13 18 -30z m253 -22 c0 -10
-7 -18 -15 -18 -11 0 -15 11 -15 38 1 35 2 36 15 18 8 -11 15 -28 15 -38z m60
23 c14 -35 5 -58 -16 -40 -15 12 -20 69 -5 69 5 0 14 -13 21 -29z m360 -37 c0
-2 -6 -4 -14 -4 -18 0 -26 22 -19 50 5 21 7 20 19 -10 8 -18 14 -34 14 -36z
m2138 40 c27 -18 29 -51 2 -59 -21 -7 -85 10 -107 28 -20 15 -15 37 10 46 26
11 63 5 95 -15z m-3228 -26 c0 -10 -4 -18 -10 -18 -5 0 -10 15 -10 33 0 24 3
28 10 17 5 -8 10 -23 10 -32z m-318 -10 c-13 -13 -26 8 -17 30 6 16 7 16 17
-1 7 -13 7 -22 0 -29z m-3355 7 c-4 -8 -14 -15 -23 -15 -16 0 -16 2 1 20 20
22 31 20 22 -5z m703 0 c0 -16 -27 -28 -36 -14 -7 12 15 41 27 33 5 -3 9 -11
9 -19z m2453 11 c6 -15 -1 -26 -15 -26 -4 0 -8 9 -8 20 0 23 15 27 23 6z
m-3043 -6 c0 -12 -28 -25 -36 -17 -9 9 6 27 22 27 8 0 14 -5 14 -10z m128 -2
c-3 -7 -12 -14 -21 -16 -12 -2 -15 1 -11 12 7 19 38 22 32 4z m92 2 c0 -12
-28 -25 -36 -17 -9 9 6 27 22 27 8 0 14 -5 14 -10z m70 1 c0 -12 -20 -25 -27
-18 -7 7 6 27 18 27 5 0 9 -4 9 -9z m120 0 c0 -5 -7 -11 -15 -15 -15 -5 -20 5
-8 17 9 10 23 9 23 -2z m94 -6 c-6 -16 -24 -21 -24 -7 0 11 11 22 21 22 5 0 6
-7 3 -15z m826 1 c0 -16 -18 -31 -27 -22 -8 8 5 36 17 36 5 0 10 -6 10 -14z
m796 -13 c-10 -10 -19 5 -10 18 6 11 8 11 12 0 2 -7 1 -15 -2 -18z m2334 11
c0 -9 -5 -14 -12 -12 -18 6 -21 28 -4 28 9 0 16 -7 16 -16z m4318 -14 c32 -20
45 -58 20 -62 -7 0 -20 -2 -28 -3 -23 -2 -90 34 -90 48 0 39 48 47 98 17z
m-12655 -25 c1 -5 -11 -12 -27 -13 -27 -3 -28 -2 -16 13 14 17 40 17 43 0z
m12817 5 c0 -5 -7 -10 -15 -10 -8 0 -15 5 -15 10 0 6 7 10 15 10 8 0 15 -4 15
-10z m-9270 -15 c17 -20 -10 -62 -45 -71 -30 -7 -30 -8 -8 -41 16 -25 16 -26
-7 -45 -33 -27 -105 -22 -105 7 0 12 15 30 38 45 33 21 36 26 23 36 -23 16
-20 50 6 68 28 20 82 21 98 1z m-2672 -16 c4 -20 -58 -52 -91 -47 -34 5 -32
32 5 51 40 20 82 18 86 -4z m222 1 c0 -24 -47 -50 -90 -50 -23 0 -30 4 -30 20
0 24 44 49 88 50 25 0 32 -4 32 -20z m4094 -38 c-3 -26 -6 -56 -7 -68 -2 -22
-24 -54 -38 -54 -14 0 -21 41 -9 55 6 8 9 18 6 23 -5 8 12 66 27 90 16 24 26
2 21 -46z m2769 40 c11 -11 15 -31 13 -60 -2 -27 2 -46 11 -54 9 -7 12 -21 8
-35 -3 -12 -1 -31 4 -40 31 -62 41 -153 17 -153 -24 0 -35 25 -46 98 -5 40
-15 80 -21 90 -8 13 -9 24 -2 36 7 13 4 29 -9 56 -12 23 -17 47 -13 60 8 25
17 25 38 2z m97 -49 c0 -36 -26 -47 -36 -15 -3 9 -11 27 -17 40 -9 18 -8 25 3
32 22 14 50 -18 50 -57z m102 51 c23 14 35 1 40 -41 4 -40 -13 -45 -30 -9 -17
35 -32 33 -32 -4 0 -49 -31 -33 -44 23 -9 39 1 51 27 34 17 -11 26 -11 39 -3z
m-8232 -4 c0 -5 -7 -10 -16 -10 -8 0 -12 5 -9 10 3 6 10 10 16 10 5 0 9 -4 9
-10z m4520 3 c0 -5 -4 -15 -10 -23 -11 -18 -25 -7 -17 15 6 15 27 21 27 8z
m2478 -37 c2 -27 0 -37 -9 -34 -15 5 -31 57 -23 70 12 19 29 0 32 -36z m406
26 c-1 -7 -2 -23 -2 -37 -1 -14 -6 -25 -11 -25 -10 0 -21 60 -14 73 7 12 28 3
27 -11z m120 -29 c0 -15 -5 -26 -10 -23 -5 3 -7 12 -6 22 2 9 -2 19 -8 23 -6
3 -8 11 -4 16 10 17 30 -8 28 -38z m84 24 c2 -10 -3 -17 -12 -17 -18 0 -29 16
-21 31 9 14 29 6 33 -14z m340 11 c10 -13 15 -40 13 -65 -2 -27 -30 -12 -41
22 -15 47 2 74 28 43z m476 4 c2 -4 7 -25 11 -46 6 -28 5 -37 -4 -32 -17 11
-43 65 -36 76 7 12 22 13 29 2z m2493 -33 c35 -16 63 -32 63 -35 0 -9 -64 7
-80 21 -8 7 -32 18 -52 24 -21 7 -41 17 -44 23 -10 16 39 2 113 -33z m-6487
27 c0 -3 -4 -8 -10 -11 -5 -3 -10 -1 -10 4 0 6 5 11 10 11 6 0 10 -2 10 -4z
m1623 -13 c-13 -8 -23 -21 -23 -28 0 -7 -13 -18 -30 -25 -50 -21 -84 -76 -85
-137 -1 -54 -14 -81 -34 -68 -7 4 -10 33 -8 79 5 87 31 132 83 142 18 3 47 17
65 30 18 13 38 24 43 23 6 0 1 -7 -11 -16z m1054 -15 c3 -37 -15 -45 -27 -13
-14 37 -12 47 7 43 11 -2 18 -14 20 -30z m91 -3 c0 -19 -4 -33 -8 -30 -10 6
-19 53 -12 60 13 13 20 2 20 -30z m-3820 3 c20 -20 14 -37 -18 -53 -37 -19
-74 -19 -90 0 -30 37 73 88 108 53z m-344 -4 c26 -10 18 -42 -14 -59 -62 -32
-107 -10 -80 41 13 24 56 33 94 18z m1457 -37 c-16 -16 -26 0 -10 19 9 11 15
12 17 4 2 -6 -1 -17 -7 -23z m-1699 7 c21 -14 6 -46 -28 -60 -68 -29 -105 1
-68 55 14 19 22 22 53 16 20 -4 39 -9 43 -11z m4818 12 c0 -3 -4 -8 -10 -11
-5 -3 -10 -1 -10 4 0 6 5 11 10 11 6 0 10 -2 10 -4z m361 -57 c16 -8 19 -17
14 -38 -3 -15 1 -43 10 -64 8 -21 18 -58 21 -82 4 -40 3 -45 -15 -45 -30 0
-35 13 -47 120 -2 25 -10 55 -16 67 -10 20 -6 53 7 53 4 0 15 -5 26 -11z m168
-3 c13 -16 5 -46 -13 -46 -23 0 -36 22 -25 42 12 22 22 23 38 4z m-3659 -11
c0 -8 -4 -15 -10 -15 -5 0 -10 7 -10 15 0 8 5 15 10 15 6 0 10 -7 10 -15z
m2526 4 c8 -14 -11 -33 -25 -25 -11 7 -4 36 9 36 5 0 12 -5 16 -11z m107 -4
c8 -18 -11 -31 -25 -17 -11 11 -3 32 12 32 4 0 10 -7 13 -15z m510 1 c6 -15
-1 -26 -15 -26 -4 0 -8 9 -8 20 0 23 15 27 23 6z m602 4 c4 -6 1 -17 -5 -26
-14 -16 -40 -2 -40 22 0 16 36 19 45 4z m73 -14 c3 -13 -1 -17 -14 -14 -11 2
-20 11 -22 22 -3 13 1 17 14 14 11 -2 20 -11 22 -22z m167 14 c11 -17 -5 -32
-21 -19 -8 6 -14 15 -14 20 0 12 27 11 35 -1z m-1247 -18 c2 -7 -3 -12 -12
-12 -9 0 -16 7 -16 16 0 17 22 14 28 -4z m312 8 c0 -5 -4 -10 -10 -10 -5 0
-10 5 -10 10 0 6 5 10 10 10 6 0 10 -4 10 -10z m-7610 -9 c0 -12 -20 -25 -27
-18 -7 7 6 27 18 27 5 0 9 -4 9 -9z m3435 -61 c0 -19 -9 -29 -37 -43 -48 -24
-78 -15 -78 22 0 34 29 51 80 48 30 -2 35 -5 35 -27z m1878 -28 c-3 -20 -10
-41 -14 -46 -5 -6 -9 -18 -9 -27 0 -9 -7 -22 -15 -29 -14 -11 -15 -4 -11 60 6
77 20 108 42 90 8 -7 11 -24 7 -48z m-651 33 c0 -6 -5 -38 -13 -73 -13 -62
-38 -100 -58 -87 -13 8 -14 42 -2 49 5 3 12 26 15 51 7 44 30 79 48 73 5 -2
10 -8 10 -13z m3584 -30 c17 -50 19 -118 2 -113 -6 2 -15 11 -18 19 -4 8 -12
24 -18 36 -7 13 -12 41 -12 64 0 53 26 50 46 -6z m74 20 c22 -57 23 -75 6 -75
-18 0 -22 7 -30 63 -5 42 10 50 24 12z m-3780 8 c-1 -18 -18 -35 -24 -24 -4 6
-4 16 -1 21 7 12 25 13 25 3z m3174 -34 c7 -44 -1 -70 -15 -48 -10 16 -9 89 1
89 4 0 10 -18 14 -41z m679 -1 c31 -74 29 -121 -3 -82 -12 14 -25 114 -15 114
3 0 11 -15 18 -32z m-5415 -14 c2 -16 -6 -26 -33 -38 -44 -21 -85 -14 -85 14
0 47 111 70 118 24z m1541 -20 c-6 -7 -15 -11 -21 -8 -5 3 -4 12 3 20 6 7 15
11 21 8 5 -3 4 -12 -3 -20z m4059 -4 c3 -21 2 -22 -12 -11 -19 16 -21 44 -3
39 6 -3 14 -15 15 -28z m-1376 -5 c0 -14 1 -30 2 -37 1 -6 -5 -13 -11 -15 -9
-3 -13 8 -13 36 0 44 19 58 22 16z m303 15 c3 -5 1 -10 -4 -10 -6 0 -11 5 -11
10 0 6 2 10 4 10 3 0 8 -4 11 -10z m125 0 c0 -5 -4 -10 -10 -10 -5 0 -10 5
-10 10 0 6 5 10 10 10 6 0 10 -4 10 -10z m-4460 -31 c15 -27 -1 -45 -52 -61
-33 -10 -41 -9 -55 5 -16 16 -15 19 12 47 35 36 79 40 95 9z m5173 -5 c8 -8
-3 -34 -14 -34 -5 0 -9 9 -9 20 0 19 11 26 23 14z m-3837 -20 c-3 -9 -6 -18
-6 -20 0 -2 -7 -4 -15 -4 -18 0 -19 12 -3 28 17 17 31 15 24 -4z m1461 -6 c-3
-8 -6 -5 -6 6 -1 11 2 17 5 13 3 -3 4 -12 1 -19z m1343 13 c0 -6 -4 -13 -10
-16 -5 -3 -10 1 -10 9 0 9 5 16 10 16 6 0 10 -4 10 -9z m420 -1 c0 -5 -4 -10
-9 -10 -6 0 -13 5 -16 10 -3 6 1 10 9 10 9 0 16 -4 16 -10z m-4476 -73 c25
-18 11 -42 -37 -61 -39 -15 -42 -15 -60 3 -23 23 -16 38 27 57 39 17 48 17 70
1z m1359 1 c6 -18 -10 -58 -24 -58 -6 0 -9 -9 -6 -19 5 -21 -17 -61 -34 -61
-12 0 -12 47 1 55 6 3 7 17 4 30 -9 36 46 85 59 53z m3141 -20 c10 -14 12 -26
6 -33 -5 -6 -6 -22 -3 -34 10 -40 -18 -19 -33 24 -21 61 -2 89 30 43z m583 3
c20 11 26 10 41 -5 16 -16 16 -18 0 -30 -23 -17 -23 -28 2 -58 10 -14 17 -28
13 -31 -3 -4 0 -13 7 -22 9 -10 17 -12 30 -5 13 7 22 4 34 -9 19 -20 9 -35
-14 -21 -7 4 -19 6 -27 3 -8 -3 -28 7 -44 23 -21 20 -42 30 -67 31 -20 1 -58
5 -83 9 -45 6 -46 7 -61 57 -9 29 -14 56 -11 61 3 4 20 6 38 3 17 -3 38 -1 45
3 8 5 26 2 43 -7 25 -12 34 -13 54 -2z m113 -21 c0 -11 -6 -20 -14 -20 -20 0
-39 27 -32 45 8 22 46 1 46 -25z m-3972 13 c-4 -22 -38 -30 -38 -10 0 14 13
24 33 26 5 1 7 -7 5 -16z m1152 3 c0 -8 -5 -18 -11 -22 -14 -8 -33 11 -25 25
10 16 36 13 36 -3z m2474 8 c9 -3 16 -15 16 -26 0 -29 -44 -20 -48 10 -3 23 4
27 32 16z m520 -16 c5 -9 8 -20 4 -23 -9 -9 -48 18 -48 33 0 18 30 11 44 -10z
m-2654 -3 c0 -8 -4 -15 -10 -15 -5 0 -10 7 -10 15 0 8 5 15 10 15 6 0 10 -7
10 -15z m1350 1 c0 -8 -4 -17 -8 -20 -13 -8 -35 11 -28 23 10 16 36 14 36 -3z
m325 4 c3 -5 1 -10 -4 -10 -6 0 -11 5 -11 10 0 6 2 10 4 10 3 0 8 -4 11 -10z
m-4637 -49 c35 -22 -18 -73 -76 -73 -50 0 -49 45 2 68 36 16 56 17 74 5z
m1360 -27 c-3 -19 -34 -41 -43 -32 -4 3 -2 16 5 27 13 25 43 28 38 5z m82 -4
c0 -13 -7 -20 -20 -20 -23 0 -26 10 -8 28 18 18 28 15 28 -8z m1510 1 c0 -10
-6 -21 -14 -24 -19 -7 -25 0 -19 24 7 25 33 25 33 0z m1368 -5 c5 -23 -14 -44
-28 -30 -12 12 -1 56 14 51 6 -2 13 -12 14 -21z m-3068 0 c0 -14 -24 -29 -33
-19 -3 3 -3 11 0 19 7 18 33 18 33 0z m-4409 -62 c-19 -8 -36 -12 -39 -9 -6 6
37 24 58 24 8 0 0 -6 -19 -15z m7474 -31 c4 -18 3 -33 -2 -33 -12 0 -31 52
-25 69 6 18 19 1 27 -36z m2325 27 c0 -5 -7 -10 -15 -10 -8 0 -15 5 -15 10 0
6 7 10 15 10 8 0 15 -4 15 -10z m-8033 -27 c5 -15 -48 -43 -82 -43 -43 0 -28
41 20 53 30 8 58 3 62 -10z m-552 -3 c6 -10 -45 -40 -70 -40 -26 0 -13 33 15
41 37 10 48 10 55 -1z m-545 -13 c0 -8 -18 -21 -40 -30 -33 -13 -40 -13 -40
-2 0 15 45 44 68 45 6 0 12 -6 12 -13z m810 -22 c0 -16 -38 -35 -71 -35 -27 0
-24 12 9 32 34 22 62 23 62 3z m6015 -55 c11 -22 13 -40 7 -67 -7 -30 -5 -44
10 -68 21 -35 22 -68 4 -110 -11 -26 -10 -34 6 -60 22 -36 23 -65 3 -91 -15
-19 -15 -18 -36 6 -17 20 -20 33 -15 73 5 35 3 53 -9 69 -17 26 -19 65 -5 104
8 21 7 37 -5 67 -14 36 -13 84 2 110 7 11 22 -1 38 -33z m1486 -10 c21 -12 26
-40 6 -40 -17 0 -37 20 -37 37 0 16 5 16 31 3z m-8526 -90 c-3 -5 -16 -10 -28
-10 -18 0 -19 2 -7 10 20 13 43 13 35 0z m6835 -91 c0 -22 -24 -25 -44 -6 -12
10 -12 15 1 29 19 21 43 8 43 -23z m240 -268 c12 -24 13 -88 1 -95 -10 -6 -35
20 -44 47 -8 20 8 67 22 67 6 0 15 -9 21 -19z m-90 -32 c7 -12 5 -23 -8 -39
-16 -20 -19 -21 -31 -6 -9 10 -11 28 -7 52 6 30 9 34 22 23 8 -7 19 -20 24
-30z m1521 -100 c55 -39 26 -118 -37 -103 -69 17 -91 55 -58 102 19 28 57 28
95 1z m237 -89 c3 -42 3 -42 -25 -36 -40 10 -47 20 -32 47 27 53 53 48 57 -11z
m-1754 -3 c12 -19 3 -32 -19 -24 -17 7 -21 51 -3 45 6 -2 16 -12 22 -21z m106
-7 c0 -22 -20 -26 -38 -8 -19 19 -14 28 13 28 18 0 25 -5 25 -20z m48 -184
c-6 -59 -68 -41 -68 19 0 39 16 48 48 27 17 -11 22 -23 20 -46z m24 -183 c13
-12 17 -25 13 -44 -4 -15 -2 -36 3 -46 7 -11 7 -25 1 -35 -7 -12 -2 -22 21
-41 28 -24 29 -27 16 -54 -54 -110 -52 -99 -21 -139 23 -29 27 -45 27 -92 -1
-32 -1 -96 -1 -143 -1 -99 -18 -133 -71 -141 -38 -6 -65 30 -61 83 2 38 -10
54 -44 61 -14 2 -20 11 -20 31 0 31 -26 52 -52 43 -19 -8 -43 10 -43 32 0 8
10 23 22 34 12 10 29 30 37 44 9 15 35 33 60 43 69 25 71 38 12 99 -28 28 -55
52 -61 52 -5 0 -10 9 -10 19 0 13 11 23 35 31 41 13 43 22 13 43 -23 14 -23
15 -4 36 20 22 23 20 -51 46 -14 5 -18 35 -5 36 56 4 87 10 96 19 14 14 64 5
88 -17z m1102 -173 c14 -5 26 -13 26 -18 0 -16 -50 -33 -69 -23 -9 6 -36 8
-59 7 -28 -2 -43 1 -46 11 -8 19 17 27 58 19 20 -4 37 -2 41 4 8 13 17 13 49
0z m-859 -19 c0 -8 -4 -16 -10 -18 -16 -5 -38 14 -30 26 9 16 40 9 40 -8z
m210 -1 c0 -8 -10 -16 -22 -18 -18 -3 -23 2 -23 18 0 16 5 21 23 18 12 -2 22
-10 22 -18z m-78 4 c-3 -3 -12 -4 -19 -1 -8 3 -5 6 6 6 11 1 17 -2 13 -5z
m888 -187 c45 -25 53 -48 35 -102 -11 -34 -14 -35 -60 -35 -27 0 -51 4 -55 10
-3 5 -12 7 -19 4 -16 -6 -30 11 -45 57 -16 49 -8 64 42 76 60 15 58 15 102
-10z m365 -27 l21 -21 -21 -29 c-24 -33 -65 -48 -89 -33 -9 5 -23 22 -31 37
-14 26 -14 28 9 47 31 25 85 25 111 -1z m-1812 -178 c3 -34 -8 -41 -28 -17
-14 17 -4 58 13 52 7 -2 13 -18 15 -35z m1448 -53 c57 -27 63 -50 28 -101 -16
-22 -34 -42 -40 -45 -25 -9 -93 18 -119 49 -29 35 -29 56 0 72 11 6 31 19 44
29 30 22 36 21 87 -4z m-1433 -25 c-6 -16 -49 -19 -58 -5 -3 5 5 17 17 25 24
17 51 5 41 -20z m1839 -31 c20 -18 24 -73 6 -91 -16 -16 -73 -15 -86 1 -6 6
-14 25 -17 40 -14 54 54 89 97 50z m-1618 -161 c2 -4 -2 -16 -10 -27 -10 -14
-17 -16 -25 -8 -7 7 -9 19 -6 27 7 17 32 22 41 8z m-934 -140 c-6 -2 -10 -13
-11 -25 -1 -20 -2 -20 -8 3 -9 29 7 59 20 38 5 -7 4 -14 -1 -16z m2694 -65
c23 -17 14 -53 -14 -62 -25 -8 -60 11 -60 33 0 38 40 54 74 29z m-1754 -34 c0
-20 -23 -11 -26 9 -1 11 3 15 12 11 8 -3 14 -12 14 -20z m25 -233 c4 -6 10 -8
15 -5 4 3 10 -2 14 -10 6 -17 1 -20 -40 -29 -24 -6 -33 -3 -38 10 -11 30 33
60 49 34z m1425 -135 c12 -32 4 -51 -23 -60 -40 -13 -51 -10 -66 17 -14 24
-14 28 3 47 27 30 74 28 86 -4z"/>
<path d="M7825 6866 c-14 -10 -18 -25 -17 -62 2 -72 12 -126 27 -150 7 -11 15
-34 17 -50 l3 -29 83 -3 c74 -3 82 -1 82 16 0 10 -5 23 -11 29 -8 8 -8 17 0
31 14 27 14 65 -1 113 -9 32 -8 44 3 65 12 23 11 27 -6 40 -25 19 -154 19
-180 0z"/>
<path d="M9634 6747 c-3 -8 13 -45 34 -83 22 -38 47 -85 56 -106 10 -20 26
-44 37 -54 10 -9 19 -24 19 -31 0 -8 9 -26 20 -40 11 -14 20 -34 20 -43 0 -30
92 -181 116 -190 12 -5 87 -9 166 -10 117 -1 154 -5 200 -22 55 -19 88 -19 88
0 0 5 -16 25 -37 45 -20 20 -33 40 -30 43 3 4 2 15 -4 25 -5 11 -6 19 -1 19
14 0 35 -28 28 -38 -3 -5 10 -24 29 -42 18 -18 31 -38 29 -44 -10 -27 54 -66
181 -111 181 -64 311 -112 368 -136 55 -23 84 -18 97 17 5 13 18 24 28 24 10
0 28 11 40 25 12 14 29 25 37 25 8 0 15 4 15 8 0 5 11 15 25 22 31 17 40 42
24 72 -12 23 -12 23 15 -1 14 -14 26 -29 26 -35 0 -14 -80 -90 -104 -99 -10
-4 -20 -16 -23 -27 -3 -11 -13 -20 -22 -20 -24 -1 -54 -27 -48 -42 2 -7 28
-21 57 -30 55 -18 85 -11 95 22 3 9 18 21 35 27 16 6 30 18 30 27 0 9 7 16 15
16 13 0 63 39 203 156 32 27 21 44 -27 44 -21 0 -58 7 -82 16 -24 8 -255 87
-513 175 -316 107 -476 157 -492 153 -17 -4 -32 1 -54 19 -37 31 -123 61 -158
54 -18 -3 -36 3 -58 19 -17 13 -58 33 -90 43 -32 10 -95 30 -139 44 -44 14
-113 37 -152 51 -83 30 -92 31 -99 13z m660 -413 c9 -24 7 -28 -9 -14 -17 14
-20 30 -6 30 5 0 12 -7 15 -16z"/>
<path d="M7915 6510 l-60 -5 3 -65 c1 -36 18 -176 37 -310 27 -193 32 -247 22
-256 -10 -11 -121 -72 -322 -179 -33 -18 -87 -47 -120 -65 -33 -18 -141 -77
-240 -131 l-180 -97 -5 -229 c-3 -125 -2 -232 2 -237 4 -5 13 -4 21 2 9 8 17
8 24 1 6 -6 23 -9 39 -7 23 2 29 8 30 28 3 66 3 67 17 40 8 -15 10 -28 4 -31
-20 -14 2 -39 33 -39 33 0 53 26 30 40 -9 5 -9 9 -1 14 6 4 8 18 5 31 -3 13
-3 33 1 46 10 30 24 6 25 -41 0 -19 0 -44 1 -55 0 -18 15 -34 31 -35 4 0 6 91
5 203 l-1 202 40 26 c21 15 71 43 109 64 39 21 82 46 97 57 14 10 28 18 30 18
5 0 119 64 368 205 85 49 167 95 182 102 15 8 30 17 32 21 2 4 -13 104 -35
222 -22 118 -48 264 -59 324 -10 60 -25 115 -32 121 -18 17 -62 22 -133 15z
m-405 -1020 c0 -5 -5 -10 -11 -10 -5 0 -7 5 -4 10 3 6 8 10 11 10 2 0 4 -4 4
-10z m-120 -64 c0 -7 -66 -46 -76 -46 -5 0 9 12 31 25 42 26 45 28 45 21z
m-135 -16 c-3 -5 -11 -10 -16 -10 -6 0 -7 5 -4 10 3 6 11 10 16 10 6 0 7 -4 4
-10z m12 -82 c-3 -8 -6 -5 -6 6 -1 11 2 17 5 13 3 -3 4 -12 1 -19z m0 -130
c-3 -7 -5 -2 -5 12 0 14 2 19 5 13 2 -7 2 -19 0 -25z m-172 -78 c-6 -9 -9 -9
-16 1 -10 17 0 34 13 21 6 -6 7 -16 3 -22z m86 -12 l-5 -33 -6 30 c-7 32 -3
48 9 41 4 -3 5 -20 2 -38z m107 33 c11 -7 11 -9 -2 -14 -9 -4 -16 -14 -16 -24
-1 -14 -4 -12 -15 7 -10 19 -10 27 -2 32 15 10 19 10 35 -1z m-201 -123 c-3
-8 -6 -5 -6 6 -1 11 2 17 5 13 3 -3 4 -12 1 -19z m8 -48 c-5 -8 -11 -8 -17 -2
-6 6 -7 16 -3 22 5 8 11 8 17 2 6 -6 7 -16 3 -22z"/>
<path d="M8214 6510 c-20 -4 -30 -12 -32 -27 -2 -12 16 -106 39 -210 23 -103
50 -226 59 -273 10 -47 23 -105 29 -130 6 -25 11 -50 11 -57 0 -12 -66 -58
-155 -108 -82 -46 -171 -97 -340 -195 -88 -51 -190 -110 -227 -130 -37 -21
-81 -48 -98 -60 l-31 -22 6 -77 c4 -42 6 -99 5 -127 -1 -36 4 -57 15 -68 9 -9
12 -16 6 -16 -6 0 -11 -7 -11 -16 0 -9 7 -14 18 -12 24 5 32 148 8 148 -14 0
-14 3 1 20 9 11 19 17 21 15 3 -3 7 -37 8 -77 5 -97 9 -108 45 -108 l29 0 0
70 c0 64 -2 72 -22 80 -16 6 -18 9 -7 9 9 1 20 8 23 18 6 14 8 14 20 -3 8 -10
11 -23 7 -29 -4 -5 -6 -28 -4 -50 2 -22 5 -51 6 -65 2 -22 7 -25 37 -25 l35 0
-4 65 c-2 36 -7 70 -11 75 -10 12 5 43 16 33 3 -4 8 -29 11 -55 2 -26 6 -59 7
-73 2 -14 4 -31 5 -37 1 -10 38 -13 149 -13 l148 0 74 46 c41 25 93 58 114 72
l39 27 -34 6 c-31 6 -29 6 15 8 42 1 62 9 134 57 46 31 86 54 89 51 2 -3 -17
-18 -44 -33 -26 -15 -59 -37 -71 -48 l-24 -21 49 -6 c47 -6 47 -6 -17 -7 -63
-2 -70 -5 -168 -68 -56 -36 -102 -70 -102 -74 0 -4 35 -10 78 -12 l77 -5 104
68 c57 38 108 69 114 69 5 0 7 7 3 15 -4 10 1 15 15 15 11 0 30 5 41 11 13 7
18 7 14 1 -3 -6 2 -13 11 -15 11 -3 7 -5 -10 -6 -36 -1 -92 -41 -75 -53 7 -4
21 -8 31 -8 21 0 87 41 87 55 0 6 16 15 35 21 19 6 32 7 29 3 -2 -5 8 -15 24
-23 27 -14 31 -13 88 24 61 41 289 195 408 277 37 27 92 64 122 83 168 109
613 412 624 425 11 14 6 31 -38 119 -28 57 -62 113 -76 124 -14 11 -63 32
-108 47 -46 15 -96 34 -113 43 -21 11 -70 17 -160 20 l-130 4 -294 115 -294
114 -226 -3 c-125 -2 -240 -5 -257 -8z m-44 -914 c0 -3 -4 -8 -10 -11 -5 -3
-10 -1 -10 4 0 6 5 11 10 11 6 0 10 -2 10 -4z m-50 -31 c-7 -8 -17 -15 -22
-15 -6 0 -5 7 2 15 7 8 17 15 22 15 6 0 5 -7 -2 -15z m1050 5 c0 -5 -5 -10
-11 -10 -5 0 -7 5 -4 10 3 6 8 10 11 10 2 0 4 -4 4 -10z m-1160 -71 c-8 -5
-33 -19 -55 -30 -47 -25 -36 -10 15 19 36 21 67 30 40 11z m-6 -74 c-4 -8 -13
-15 -22 -15 -13 0 -12 3 4 15 24 18 25 18 18 0z m-124 1 c0 -2 -48 -32 -107
-66 -60 -34 -120 -71 -135 -81 -16 -11 -28 -15 -28 -10 0 8 71 53 130 84 8 4
29 16 45 27 43 28 95 54 95 46z m-140 -11 c0 -2 -15 -12 -32 -20 l-33 -16 25
20 c24 20 40 26 40 16z m985 -3 c-18 -15 -85 -54 -85 -48 0 3 19 16 43 30 43
26 59 33 42 18z m-785 -22 c0 -5 -5 -10 -11 -10 -5 0 -7 5 -4 10 3 6 8 10 11
10 2 0 4 -4 4 -10z m-341 -54 c-18 -19 -80 -54 -77 -45 2 7 20 20 38 31 34 17
48 23 39 14z m1297 -21 c-26 -23 -46 -32 -46 -21 0 5 63 46 70 46 3 0 -8 -11
-24 -25z m-312 0 c-10 -8 -23 -14 -29 -14 -5 0 -1 6 9 14 11 8 24 15 30 15 5
0 1 -7 -10 -15z m201 -1 c-26 -20 -55 -36 -55 -30 0 5 63 46 70 46 3 -1 -4 -8
-15 -16z m-1005 -18 c0 -2 -7 -6 -15 -10 -8 -3 -15 -1 -15 4 0 6 7 10 15 10 8
0 15 -2 15 -4z m1060 -10 c0 -2 -8 -10 -17 -17 -16 -13 -17 -12 -4 4 13 16 21
21 21 13z m-1120 -31 c-7 -8 -10 -25 -6 -39 3 -14 2 -28 -4 -31 -14 -9 -13 58
2 73 17 17 23 15 8 -3z m964 -9 c-10 -8 -21 -12 -24 -10 -5 6 21 24 34 24 6 0
1 -6 -10 -14z m116 9 c0 -4 -104 -76 -130 -89 -24 -13 31 33 79 65 46 30 51
32 51 24z m-1262 -45 c0 -16 -4 -30 -9 -30 -5 0 -9 16 -9 36 0 42 17 38 18 -6z
m86 24 c9 -23 7 -44 -3 -44 -5 0 -11 14 -13 30 -5 32 6 41 16 14z m1006 -21
c0 -5 -11 -13 -25 -20 -29 -13 -33 -6 -7 13 19 15 32 18 32 7z m-657 -80 c-7
-2 -19 -2 -25 0 -7 3 -2 5 12 5 14 0 19 -2 13 -5z m54 1 c-3 -3 -12 -4 -19 -1
-8 3 -5 6 6 6 11 1 17 -2 13 -5z m76 -1 c-7 -2 -21 -2 -30 0 -10 3 -4 5 12 5
17 0 24 -2 18 -5z m80 0 c-7 -2 -19 -2 -25 0 -7 3 -2 5 12 5 14 0 19 -2 13 -5z"/>
<path d="M8182 6150 c0 -14 2 -19 5 -12 2 6 2 18 0 25 -3 6 -5 1 -5 -13z"/>
<path d="M9975 6120 c-3 -5 17 -52 45 -104 59 -109 62 -98 -43 -171 -129 -90
-190 -133 -277 -195 -51 -36 -103 -72 -116 -80 -13 -8 -123 -85 -245 -170
-301 -210 -334 -233 -406 -282 -35 -23 -63 -46 -63 -51 0 -12 90 -3 99 9 11
15 102 76 107 72 2 -3 -16 -19 -41 -37 -59 -42 -63 -51 -22 -51 29 0 89 31
142 72 69 55 218 152 165 108 -42 -35 -204 -152 -217 -157 -26 -10 -12 -23 25
-23 29 0 51 10 93 41 102 77 104 63 2 -18 l-28 -22 34 -1 c26 0 54 13 108 51
40 27 73 47 73 44 0 -9 -27 -35 -37 -35 -4 0 -24 -14 -43 -30 l-35 -29 39 -1
c36 0 104 37 114 62 2 4 10 8 17 8 7 0 15 4 17 8 2 4 53 44 113 87 61 43 169
122 240 175 72 53 137 100 145 104 22 11 -29 -31 -102 -86 -35 -26 -101 -75
-147 -110 -46 -35 -104 -77 -128 -94 -24 -17 -57 -43 -73 -58 -17 -14 -33 -26
-37 -26 -5 0 -26 -16 -48 -35 l-40 -34 52 -1 c41 0 58 5 81 25 17 14 35 25 41
25 6 0 16 9 23 20 13 20 28 27 28 12 0 -5 -21 -24 -47 -43 l-48 -34 65 -6 65
-6 -71 -1 c-64 -2 -76 -5 -124 -39 -77 -55 -76 -63 11 -63 69 0 74 2 126 41
29 23 57 47 61 53 4 6 24 20 44 31 20 11 70 46 110 77 40 32 174 135 298 230
124 94 268 205 320 246 52 40 114 88 138 105 23 17 42 37 42 44 0 14 -49 97
-121 207 -29 45 -53 69 -78 80 -48 21 -118 45 -161 56 -47 13 -277 13 -285 0z
m95 -555 c-7 -9 -15 -13 -19 -10 -3 3 1 10 9 15 21 14 24 12 10 -5z m-280 -70
c-7 -8 -18 -15 -24 -15 -6 0 -2 7 8 15 25 19 32 19 16 0z m100 11 c0 -3 -15
-14 -32 -26 l-33 -22 28 26 c27 25 37 31 37 22z m-233 -26 c-14 -11 -28 -20
-32 -20 -10 0 38 39 49 40 5 0 -3 -9 -17 -20z m433 5 c-7 -9 -15 -13 -19 -10
-3 3 1 10 9 15 21 14 24 12 10 -5z m-540 -9 c0 -2 -7 -7 -16 -10 -8 -3 -12 -2
-9 4 6 10 25 14 25 6z m104 -75 c-21 -16 -41 -27 -44 -24 -3 2 2 8 10 13 8 5
24 16 35 24 11 8 24 16 29 16 5 0 -8 -13 -30 -29z m-199 9 c-3 -5 -12 -10 -18
-10 -7 0 -6 4 3 10 19 12 23 12 15 0z m315 6 c0 -3 -4 -8 -10 -11 -5 -3 -10
-1 -10 4 0 6 5 11 10 11 6 0 10 -2 10 -4z m210 -10 c0 -3 -4 -8 -10 -11 -5 -3
-10 -1 -10 4 0 6 5 11 10 11 6 0 10 -2 10 -4z m-440 -10 c0 -3 -4 -8 -10 -11
-5 -3 -10 -1 -10 4 0 6 5 11 10 11 6 0 10 -2 10 -4z m-160 -110 c0 -2 -8 -10
-17 -17 -16 -13 -17 -12 -4 4 13 16 21 21 21 13z m-120 -10 c0 -2 -8 -10 -17
-17 -16 -13 -17 -12 -4 4 13 16 21 21 21 13z m500 -37 c-57 -50 -93 -74 -88
-59 2 8 13 18 24 24 10 6 21 13 24 16 10 11 65 49 70 49 3 0 -11 -13 -30 -30z
m-320 6 c-16 -19 -114 -80 -105 -65 6 10 104 78 114 79 2 1 -2 -6 -9 -14z
m110 11 c0 -4 -84 -66 -110 -80 -27 -15 24 29 65 57 41 28 45 30 45 23z m-330
-10 c0 -2 -28 -23 -62 -47 -35 -24 -57 -36 -50 -26 8 9 35 30 60 47 45 30 52
33 52 26z"/>
<path d="M8201 6060 c-1 -8 8 -66 19 -129 11 -62 17 -118 14 -125 -4 -6 1 -4
10 4 15 15 15 21 0 85 -32 138 -43 180 -43 165z"/>
<path d="M10520 6008 c0 -7 32 -62 70 -121 39 -60 70 -112 70 -117 0 -12 -35
-41 -455 -365 -164 -126 -318 -247 -342 -267 -24 -21 -53 -43 -64 -49 -12 -6
-18 -17 -15 -25 3 -8 -1 -14 -10 -14 -19 0 -134 -79 -134 -91 0 -5 35 -9 78
-9 80 0 96 6 152 57 14 13 28 23 32 23 5 0 8 6 8 14 0 8 10 16 23 20 12 3 49
27 82 54 33 27 150 120 260 207 110 87 223 177 251 199 29 23 120 95 204 161
198 155 214 170 207 182 -4 6 -55 28 -114 49 -60 20 -145 52 -190 71 -88 36
-113 40 -113 21z m-677 -955 c-7 -2 -21 -2 -30 0 -10 3 -4 5 12 5 17 0 24 -2
18 -5z"/>
<path d="M10885 5770 c-55 -45 -212 -171 -350 -281 -301 -241 -482 -387 -511
-414 -12 -11 -28 -24 -36 -30 -41 -27 -107 -81 -108 -87 0 -4 19 -9 43 -11 37
-3 36 -4 -14 -5 -42 -2 -60 -7 -74 -22 -18 -20 -17 -20 51 -22 l69 -2 -60 -3
c-92 -5 -125 -12 -125 -28 0 -13 43 -15 291 -15 l291 0 39 39 c22 21 39 44 39
50 0 6 8 11 18 11 40 1 47 16 26 59 -10 23 -22 41 -26 41 -5 0 -8 8 -8 18 0
10 -7 27 -15 40 -9 12 -22 37 -30 56 l-15 35 168 137 c92 76 199 164 237 195
267 220 315 261 315 268 0 10 -52 36 -90 46 -22 5 -42 -7 -125 -75z m-842
-827 c-13 -2 -35 -2 -50 0 -16 2 -5 4 22 4 28 0 40 -2 28 -4z m80 0 c-7 -2
-19 -2 -25 0 -7 3 -2 5 12 5 14 0 19 -2 13 -5z m250 0 c-7 -2 -19 -2 -25 0 -7
3 -2 5 12 5 14 0 19 -2 13 -5z m-366 -49 c-3 -3 -12 -4 -19 -1 -8 3 -5 6 6 6
11 1 17 -2 13 -5z"/>
<path d="M8023 5690 c-44 -26 -42 -34 2 -13 19 9 35 20 35 25 0 11 0 11 -37
-12z"/>
<path d="M7848 5590 c-66 -42 -60 -47 10 -9 67 37 70 39 51 39 -8 0 -35 -14
-61 -30z"/>
<path d="M7735 5526 c-22 -12 -103 -58 -180 -101 -77 -43 -147 -84 -155 -91
-10 -8 -15 -28 -15 -51 3 -119 6 -143 16 -143 7 0 9 28 6 84 -2 47 -1 89 2 94
3 5 20 17 36 26 17 9 46 26 65 37 19 12 90 52 158 91 67 39 122 72 122 74 0 9
-17 3 -55 -20z"/>
<path d="M8570 5097 l-45 -32 45 -3 c44 -3 110 20 110 39 0 11 -35 29 -52 28
-7 0 -33 -15 -58 -32z"/>
<path d="M7390 5081 c0 -22 5 -43 10 -46 6 -4 10 12 10 39 0 25 -4 46 -10 46
-5 0 -10 -18 -10 -39z"/>
<path d="M8500 5043 c0 -5 -25 -21 -56 -37 -32 -17 -53 -34 -50 -41 3 -8 -2
-11 -15 -8 -10 3 -19 1 -19 -5 0 -6 -9 -14 -21 -17 -25 -8 -15 -21 24 -30 17
-5 27 -3 27 4 0 6 7 11 15 11 8 0 15 5 15 10 0 6 5 10 10 10 10 0 90 49 100
61 3 3 15 11 28 18 34 18 26 31 -18 31 -22 0 -40 -3 -40 -7z"/>
<path d="M8811 5031 c-13 -10 -21 -23 -17 -30 5 -7 -1 -11 -16 -11 -30 0 -118
-61 -118 -82 0 -18 57 -6 81 16 14 13 41 32 60 42 19 9 28 19 22 21 -7 3 -13
9 -13 14 0 6 6 9 13 8 26 -3 43 2 67 21 l25 20 -40 0 c-24 0 -50 -8 -64 -19z"/>
<path d="M8928 5032 c-30 -18 -38 -38 -12 -28 9 3 26 6 39 6 12 0 33 9 46 20
l24 19 -35 0 c-19 0 -47 -7 -62 -17z"/>
<path d="M9030 5030 c-20 -16 -22 -22 -11 -29 9 -6 6 -8 -13 -8 -31 0 -99 -50
-90 -65 4 -6 2 -8 -4 -5 -12 8 -42 -2 -42 -14 0 -20 75 -9 101 15 14 13 40 31
58 40 17 9 29 21 26 26 -3 5 5 12 17 16 13 4 34 15 47 25 l24 19 -44 0 c-28 0
-53 -7 -69 -20z"/>
<path d="M9149 5030 l-24 -19 35 0 c20 -1 46 8 60 19 l25 20 -36 0 c-22 0 -46
-8 -60 -20z"/>
<path d="M9253 5033 c-13 -8 -23 -19 -23 -24 0 -4 10 -9 23 -11 23 -4 77 26
77 43 0 15 -53 9 -77 -8z"/>
<path d="M9375 5038 c-11 -7 -24 -15 -30 -20 -5 -5 -19 -15 -30 -22 -19 -14
-19 -15 7 -27 34 -15 66 -3 121 45 l37 33 -42 1 c-24 1 -52 -4 -63 -10z"/>
<path d="M8318 5002 c-59 -38 -67 -55 -30 -60 17 -3 59 19 116 60 10 6 -10 38
-23 38 -3 0 -32 -17 -63 -38z"/>
<path d="M8889 4991 c-30 -6 -82 -38 -133 -83 -6 -4 5 -8 25 -8 23 0 54 13 97
41 54 35 79 62 55 58 -5 -1 -24 -4 -44 -8z"/>
<path d="M9105 4991 c-11 -3 -44 -24 -73 -46 l-53 -40 31 -3 c27 -3 84 28 143
78 12 10 -24 18 -48 11z"/>
<path d="M9165 4964 c-16 -13 -36 -29 -42 -35 -19 -14 -16 -29 5 -29 16 0 60
25 72 40 3 4 15 12 28 19 12 6 22 16 22 21 0 19 -56 9 -85 -16z"/>
<path d="M7490 4956 c0 -7 9 -16 20 -19 15 -4 20 0 20 14 0 12 -7 19 -20 19
-11 0 -20 -6 -20 -14z"/>
<path d="M7562 4953 c4 -20 27 -27 47 -14 19 12 4 31 -25 31 -19 0 -25 -5 -22
-17z"/>
<path d="M7652 4953 c2 -11 12 -17 28 -17 16 0 26 6 28 17 3 13 -4 17 -28 17
-24 0 -31 -4 -28 -17z"/>
<path d="M7740 4960 c0 -5 7 -10 15 -10 8 0 15 -4 15 -8 0 -5 37 -8 83 -7 116
3 121 3 143 20 17 13 5 14 -118 15 -86 0 -138 -4 -138 -10z"/>
<path d="M8036 4955 c-7 -20 8 -25 60 -22 30 2 40 -1 37 -10 -7 -18 7 -16 45
7 18 11 30 25 27 30 -3 6 -41 10 -85 10 -61 0 -79 -3 -84 -15z"/>
<path d="M9231 4934 l-44 -34 49 0 c29 0 59 7 72 16 22 15 22 17 6 35 -23 25
-32 24 -83 -17z"/>
<path d="M9363 4929 c-43 -16 -23 -27 50 -28 55 0 77 4 96 18 23 18 23 18 -50
18 -41 1 -84 -3 -96 -8z"/>
<path d="M9602 4929 c-49 -18 -32 -29 46 -29 63 0 85 4 103 19 23 18 22 18
-53 18 -41 0 -84 -4 -96 -8z"/>
<path d="M8204 4920 c-34 -13 -37 -29 -9 -36 25 -6 65 17 65 38 0 10 -28 9
-56 -2z"/>
<path d="M8262 4888 c-53 -33 -14 -52 57 -27 39 14 39 24 2 37 -22 8 -34 6
-59 -10z"/>
<path d="M7047 4893 c-11 -10 -8 -71 4 -78 15 -10 20 -2 26 44 4 32 2 41 -9
41 -8 0 -18 -3 -21 -7z"/>
<path d="M7090 4855 c0 -28 4 -45 12 -45 9 0 9 -3 0 -12 -7 -7 -12 -26 -12
-43 0 -17 5 -36 12 -43 9 -9 9 -12 0 -12 -7 0 -12 -16 -12 -40 0 -22 -4 -40
-10 -40 -5 0 -10 18 -10 41 0 28 -4 39 -12 37 -10 -4 -14 -48 -16 -168 -3
-177 0 -199 22 -181 10 8 16 8 25 -3 14 -17 -9 -39 -33 -30 -12 5 -16 0 -16
-20 0 -23 3 -26 24 -20 23 5 24 3 24 -41 -1 -44 -3 -46 -25 -40 -20 5 -23 2
-23 -20 0 -22 3 -24 19 -16 20 11 31 5 31 -17 0 -10 -8 -13 -24 -10 -15 3 -27
0 -30 -8 -8 -22 4 -44 24 -44 25 0 29 -8 23 -47 -3 -19 -11 -33 -19 -33 -17 0
-18 12 -2 28 9 9 8 12 -5 12 -18 0 -23 -42 -19 -170 1 -30 1 -68 1 -85 0 -16
0 -64 1 -105 3 -243 0 -432 -9 -555 -5 -77 -8 -257 -7 -400 3 -215 6 -267 20
-299 18 -44 21 -92 6 -131 -11 -29 4 -152 21 -169 13 -15 26 34 21 81 -4 40
-2 43 37 67 55 35 85 38 89 8 3 -19 9 -23 30 -20 22 2 28 9 30 36 3 30 1 32
-30 32 -54 0 -76 10 -83 37 -8 34 2 42 14 12 7 -21 15 -24 56 -23 51 1 82 23
91 64 11 53 13 236 3 269 -8 23 -8 40 -1 55 18 36 20 64 10 105 -7 27 -14 38
-24 34 -8 -3 -14 1 -14 11 0 9 6 16 14 16 22 0 39 66 32 119 -4 25 -6 72 -6
104 1 66 -13 95 -37 75 -11 -9 -16 -9 -24 3 -21 33 4 82 29 57 9 -9 15 -9 24
0 20 20 16 656 -4 668 -5 3 -15 1 -22 -5 -35 -30 -61 24 -58 119 1 25 2 58 2
74 0 15 4 34 9 40 6 8 6 27 0 56 -8 35 -7 46 5 59 14 13 17 13 34 -2 17 -16
20 -16 32 -2 10 11 10 22 3 38 -7 14 -7 30 -2 39 4 8 5 89 1 179 -7 155 -8
164 -27 164 -19 0 -20 -7 -21 -110 -1 -133 -2 -140 -11 -131 -8 7 -12 84 -12
189 0 33 -4 49 -15 53 -14 5 -14 8 -1 27 24 34 19 64 -10 71 -14 4 -30 4 -35
1 -13 -8 -13 -72 1 -80 7 -5 5 -11 -5 -18 -9 -8 -17 -33 -19 -67 l-3 -55 -2
57 c-1 31 -6 59 -11 63 -6 3 -6 18 -1 36 10 34 -2 69 -23 70 -7 0 -2 4 11 9
18 8 22 17 22 50 l0 40 -40 0 -40 0 0 -45z m204 -497 c7 -41 -7 -59 -30 -37
-10 11 -11 23 -2 58 12 47 21 41 32 -21z m-102 -40 c-16 -16 -37 4 -28 28 6
16 8 16 23 1 13 -13 15 -19 5 -29z m-5 -83 c-1 -25 -6 -46 -12 -48 -10 -2 -18
68 -10 91 10 28 24 -1 22 -43z m8 -90 c0 -28 -29 -25 -33 3 -3 19 0 23 15 20
10 -2 18 -12 18 -23z m0 -105 c0 -33 -4 -45 -15 -45 -11 0 -16 13 -18 48 -3
42 -1 48 15 45 14 -3 18 -13 18 -48z m-10 -79 c3 -5 1 -12 -5 -16 -5 -3 -10 1
-10 9 0 18 6 21 15 7z m129 -96 c2 -7 -1 -21 -9 -31 -11 -15 -15 -16 -29 -5
-19 16 -20 33 -5 48 13 13 35 7 43 -12z m-14 -82 c0 -20 -3 -24 -11 -16 -7 7
-9 19 -6 27 10 24 17 19 17 -11z m0 -73 c0 -5 -4 -10 -10 -10 -5 0 -10 5 -10
10 0 6 5 10 10 10 6 0 10 -4 10 -10z m7 -304 c-4 -9 -11 -16 -17 -16 -11 0
-14 33 -3 44 11 10 26 -11 20 -28z m-173 -1025 c3 -5 -1 -14 -9 -21 -13 -10
-15 -9 -15 9 0 21 14 28 24 12z"/>
<path d="M7180 4878 c0 -49 11 -68 40 -68 23 0 29 5 34 31 11 56 9 59 -34 59
-35 0 -40 -3 -40 -22z"/>
<path d="M7280 4860 c0 -33 3 -40 20 -40 17 0 20 7 20 40 0 33 -3 40 -20 40
-17 0 -20 -7 -20 -40z"/>
<path d="M7400 4881 c0 -12 5 -21 10 -21 6 0 10 6 10 14 0 8 -4 18 -10 21 -5
3 -10 -3 -10 -14z"/>
<path d="M7490 4889 c0 -27 25 -79 38 -79 9 0 12 12 10 43 -2 35 -7 43 -25 45
-14 2 -23 -2 -23 -9z"/>
<path d="M7655 4889 c-4 -6 -4 -26 -1 -45 6 -31 10 -34 42 -34 l36 0 -6 43
c-3 23 -5 43 -5 45 -2 7 -61 0 -66 -9z"/>
<path d="M8585 4872 l-30 -17 37 -3 c38 -3 78 11 78 28 0 16 -52 11 -85 -8z"/>
<path d="M8714 4880 c-36 -14 -38 -30 -5 -30 36 0 83 19 75 31 -7 11 -42 10
-70 -1z"/>
<path d="M8815 4870 l-30 -20 38 0 c41 0 77 14 77 30 0 17 -54 11 -85 -10z"/>
<path d="M8944 4880 c-36 -14 -38 -30 -4 -30 35 0 70 15 70 30 0 12 -37 12
-66 0z"/>
<path d="M9053 4880 c-28 -11 -30 -30 -4 -30 29 0 71 18 71 30 0 12 -37 12
-67 0z"/>
<path d="M9164 4880 c-42 -17 -37 -30 11 -30 50 0 89 15 80 31 -8 11 -62 11
-91 -1z"/>
<path d="M9293 4878 c-44 -21 -22 -28 88 -28 100 0 110 2 107 18 -3 14 -16 17
-88 19 -47 1 -95 -3 -107 -9z"/>
<path d="M9547 4883 c-4 -3 -7 -12 -7 -20 0 -10 21 -13 83 -13 88 0 99 3 90
26 -4 10 -25 14 -82 14 -43 0 -81 -3 -84 -7z"/>
<path d="M13232 4878 c5 -15 28 -18 29 -3 0 6 -7 12 -17 13 -10 3 -15 -1 -12
-10z"/>
<path d="M8165 4820 c-4 -6 7 -10 25 -10 18 0 29 4 25 10 -3 6 -15 10 -25 10
-10 0 -22 -4 -25 -10z"/>
<path d="M9578 4813 c9 -4 10 -8 2 -18 -8 -10 -6 -23 6 -52 9 -21 16 -41 16
-45 -1 -4 9 -33 23 -64 14 -31 25 -64 25 -73 0 -18 -40 -59 -104 -105 -21 -16
-58 -48 -82 -72 -24 -24 -57 -52 -73 -62 -17 -10 -41 -35 -55 -54 -20 -30 -23
-42 -16 -70 5 -18 13 -49 18 -68 5 -19 18 -57 30 -83 12 -26 24 -65 27 -85 13
-80 15 -83 58 -101 23 -10 48 -25 55 -34 7 -9 31 -25 53 -36 l39 -21 0 23 c0
12 -7 31 -15 41 -8 11 -15 33 -15 49 0 16 -7 41 -14 55 -14 25 -53 143 -78
232 -20 74 -19 79 23 106 22 14 42 31 45 38 3 7 31 31 62 52 31 22 82 62 113
89 31 28 71 61 88 75 l33 25 -22 60 c-13 33 -30 69 -40 80 -10 11 -16 25 -13
32 6 18 -25 73 -42 73 -8 0 -15 5 -15 10 0 6 -18 10 -41 10 -24 0 -38 -4 -34
-10 3 -5 -1 -10 -9 -10 -9 0 -16 5 -16 10 0 6 -10 10 -22 9 -13 0 -17 -3 -10
-6z"/>
<path d="M9808 4813 c7 -3 16 -2 19 1 4 3 -2 6 -13 5 -11 0 -14 -3 -6 -6z"/>
<path d="M9885 4810 c4 -6 -12 -10 -39 -10 -34 0 -46 -4 -46 -15 0 -26 23 -65
43 -71 16 -5 17 -8 6 -15 -12 -7 -11 -16 5 -56 38 -100 38 -103 -53 -178 -45
-37 -93 -82 -109 -100 -15 -18 -42 -40 -59 -49 -18 -9 -33 -23 -33 -32 0 -8
-13 -23 -30 -32 -20 -11 -30 -25 -31 -42 -2 -32 -4 -22 32 -120 17 -47 36
-107 43 -135 6 -27 19 -64 29 -82 9 -18 17 -38 17 -46 0 -20 38 -135 60 -182
10 -22 28 -71 41 -110 12 -38 30 -83 39 -100 10 -16 23 -48 30 -70 23 -73 59
-135 79 -135 44 0 48 58 9 148 -10 24 -18 58 -18 75 0 18 -12 68 -26 112 -14
44 -34 113 -44 153 -11 40 -27 88 -35 107 -9 18 -18 45 -19 59 -2 14 -11 37
-20 50 -9 14 -17 36 -18 49 -2 23 36 87 52 87 9 0 129 111 197 183 5 5 23 17
42 28 18 11 35 29 38 40 3 10 9 19 12 19 28 0 190 150 191 176 0 7 -16 43 -35
80 -19 38 -35 75 -35 82 0 7 -7 15 -15 18 -10 4 0 17 35 45 51 40 64 79 27 79
-10 0 -15 -4 -12 -10 4 -7 -53 -10 -164 -10 -107 0 -171 4 -171 10 0 6 -5 10
-11 10 -5 0 -7 -4 -4 -10z m51 -103 c4 -4 -7 -7 -25 -7 -18 0 -30 4 -27 8 6
10 42 9 52 -1z m49 3 c3 -5 -1 -10 -10 -10 -9 0 -13 5 -10 10 3 6 8 10 10 10
2 0 7 -4 10 -10z m62 -6 c-3 -3 -12 -4 -19 -1 -8 3 -5 6 6 6 11 1 17 -2 13 -5z"/>
<path d="M10068 4813 c7 -3 16 -2 19 1 4 3 -2 6 -13 5 -11 0 -14 -3 -6 -6z"/>
<path d="M10148 4813 c6 -2 18 -2 25 0 6 3 1 5 -13 5 -14 0 -19 -2 -12 -5z"/>
<path d="M13025 4810 c3 -5 8 -10 11 -10 2 0 4 5 4 10 0 6 -5 10 -11 10 -5 0
-7 -4 -4 -10z"/>
<path d="M7045 4766 c-7 -37 0 -60 16 -51 12 8 12 72 0 80 -6 3 -13 -10 -16
-29z"/>
<path d="M7280 4755 c0 -38 15 -45 36 -17 22 29 17 52 -11 52 -22 0 -25 -4
-25 -35z"/>
<path d="M7407 4783 c-2 -5 -1 -19 4 -33 7 -23 7 -23 8 8 1 31 -3 40 -12 25z"/>
<path d="M7410 4650 c0 -22 5 -40 10 -40 6 0 10 18 10 40 0 22 -4 40 -10 40
-5 0 -10 -18 -10 -40z"/>
<path d="M7410 4551 c0 -11 5 -23 10 -26 6 -4 10 5 10 19 0 14 -4 26 -10 26
-5 0 -10 -9 -10 -19z"/>
<path d="M7421 4431 c-1 -27 2 -32 11 -23 8 8 8 17 0 34 -10 22 -11 21 -11
-11z"/>
<path d="M7045 4239 c-10 -15 3 -25 16 -12 7 7 7 13 1 17 -6 3 -14 1 -17 -5z"/>
<path d="M7303 4228 c2 -7 0 -21 -5 -31 -6 -12 -5 -23 3 -33 15 -18 25 -18 32
0 7 17 -14 76 -26 76 -5 0 -7 -6 -4 -12z"/>
<path d="M7306 4112 c-3 -6 -1 -14 5 -17 15 -10 25 3 12 16 -7 7 -13 7 -17 1z"/>
<path d="M7560 3921 c0 -12 5 -21 10 -21 6 0 10 6 10 14 0 8 -4 18 -10 21 -5
3 -10 -3 -10 -14z"/>
<path d="M9934 3145 c-8 -20 4 -35 27 -35 21 0 25 20 7 38 -16 16 -27 15 -34
-3z"/>
<path d="M9979 3009 c-12 -7 -12 -10 1 -22 23 -22 70 -31 70 -13 0 26 -48 50
-71 35z"/>
<path d="M10113 2663 c-4 -9 2 -39 12 -67 9 -28 17 -73 16 -100 -2 -96 61
-182 114 -158 41 19 30 87 -30 183 -19 31 -35 68 -35 82 0 29 -35 77 -56 77
-8 0 -18 -8 -21 -17z"/>
<path d="M10252 2188 c-19 -19 -14 -45 10 -62 40 -28 98 -15 98 21 0 39 -79
70 -108 41z"/>
<path d="M7064 2067 c-3 -8 -4 -34 -2 -58 3 -39 4 -42 15 -24 17 30 20 87 6
92 -7 3 -16 -2 -19 -10z"/>
<path d="M10373 1900 c-12 -5 -29 -23 -38 -39 -14 -29 -14 -31 7 -45 40 -26
96 -46 112 -40 17 6 36 61 29 81 -11 30 -77 56 -110 43z"/>
<path d="M750 5309 c0 -5 5 -7 10 -4 6 3 10 8 10 11 0 2 -4 4 -10 4 -5 0 -10
-5 -10 -11z"/>
<path d="M1345 5310 c-3 -5 3 -10 15 -10 12 0 18 5 15 10 -3 6 -10 10 -15 10
-5 0 -12 -4 -15 -10z"/>
<path d="M1585 5310 c-3 -5 1 -10 9 -10 9 0 16 5 16 10 0 6 -4 10 -9 10 -6 0
-13 -4 -16 -10z"/>
<path d="M645 5150 c3 -5 8 -10 11 -10 2 0 4 5 4 10 0 6 -5 10 -11 10 -5 0 -7
-4 -4 -10z"/>
<path d="M1425 5180 c4 -6 11 -8 16 -5 14 9 11 15 -7 15 -8 0 -12 -5 -9 -10z"/>
<path d="M1200 5160 c0 -5 6 -10 14 -10 8 0 18 5 21 10 3 6 -3 10 -14 10 -12
0 -21 -4 -21 -10z"/>
<path d="M915 5149 c-4 -6 -4 -13 -1 -16 8 -8 36 5 36 17 0 13 -27 13 -35 -1z"/>
<path d="M1093 5053 c-18 -6 -16 -23 1 -23 17 0 30 16 19 23 -5 2 -14 2 -20 0z"/>
<path d="M1300 5050 c-12 -8 -11 -10 8 -10 12 0 22 5 22 10 0 13 -11 13 -30 0z"/>
<path d="M12960 4930 c0 -5 7 -10 15 -10 8 0 15 5 15 10 0 6 -7 10 -15 10 -8
0 -15 -4 -15 -10z"/>
<path d="M1198 4913 c7 -3 16 -2 19 1 4 3 -2 6 -13 5 -11 0 -14 -3 -6 -6z"/>
<path d="M725 4910 c-3 -5 3 -10 14 -10 12 0 21 5 21 10 0 6 -6 10 -14 10 -8
0 -18 -4 -21 -10z"/>
<path d="M900 4890 c0 -5 4 -10 9 -10 6 0 13 5 16 10 3 6 -1 10 -9 10 -9 0
-16 -4 -16 -10z"/>
<path d="M750 4730 c0 -5 7 -10 15 -10 8 0 15 5 15 10 0 6 -7 10 -15 10 -8 0
-15 -4 -15 -10z"/>
<path d="M935 4630 c-3 -5 1 -10 9 -10 9 0 16 5 16 10 0 6 -4 10 -9 10 -6 0
-13 -4 -16 -10z"/>
</g>
</svg>
