<?xml version="1.0" standalone="no"?>
<!DOCTYPE svg PUBLIC "-//W3C//DTD SVG 20010904//EN"
 "http://www.w3.org/TR/2001/REC-SVG-20010904/DTD/svg10.dtd">
<svg version="1.0" xmlns="http://www.w3.org/2000/svg"
 width="110px" height="110px" viewBox="0 0 1104.000000 1280.000000"
 preserveAspectRatio="xMidYMid meet">

<g transform="translate(0.000000,1280.000000) scale(0.100000,-0.100000)"
fill="#000000" stroke="none">
<path d="M5260 11559 c-25 -5 -79 -16 -120 -24 -86 -16 -152 -39 -90 -31 19 3
30 2 23 0 -7 -3 -9 -12 -6 -20 3 -9 -1 -14 -12 -14 -9 0 -13 5 -10 10 8 12 -5
13 -24 1 -12 -8 -9 -11 12 -16 18 -5 66 3 141 24 62 17 123 31 135 31 11 0 21
5 21 10 0 6 10 8 24 4 14 -3 34 -3 45 1 18 5 19 8 7 21 -16 16 -76 17 -146 3z"/>
<path d="M5675 11560 c-3 -5 -2 -10 4 -10 5 0 13 5 16 10 3 6 2 10 -4 10 -5 0
-13 -4 -16 -10z"/>
<path d="M5828 11548 c-3 -7 -24 -13 -49 -13 -64 -2 -70 -7 -19 -15 27 -5 -2
-6 -75 -4 -66 2 -127 -1 -135 -6 -11 -7 -11 -10 -2 -10 7 0 10 -5 6 -11 -4 -6
-19 -9 -38 -5 -24 5 -27 3 -16 -5 11 -8 5 -9 -27 -6 -24 3 -46 1 -49 -4 -3 -5
8 -9 25 -9 16 0 33 -4 36 -10 3 -5 -4 -10 -17 -10 -96 -2 -97 -17 -1 -19 37
-1 71 -5 76 -10 5 -5 -19 -7 -55 -4 -41 4 -73 1 -88 -7 -14 -8 -20 -8 -16 -1
8 12 -6 15 -18 4 -3 -4 -46 -8 -94 -10 -48 -2 -101 -10 -118 -18 -19 -9 -76
-15 -162 -18 -72 -1 -135 -6 -138 -10 -4 -4 15 -7 42 -7 64 0 101 -10 82 -21
-9 -6 -9 -9 -1 -9 6 0 15 5 18 10 3 6 14 10 23 10 15 0 15 -2 2 -10 -11 -8 -8
-9 11 -4 15 3 30 1 33 -5 4 -6 14 -11 22 -11 15 0 98 -49 92 -55 -1 -2 -16 -1
-31 2 -19 4 -25 8 -16 13 23 15 -74 33 -181 34 -58 0 -90 2 -72 4 17 2 32 7
32 11 0 5 -19 5 -42 1 -24 -5 -48 -4 -54 1 -6 5 -13 6 -17 3 -3 -3 -31 -7 -61
-8 -34 -1 -51 1 -44 6 8 6 -3 7 -27 4 -22 -3 -61 -8 -87 -12 -26 -3 -49 -12
-52 -20 -4 -11 1 -13 22 -7 14 3 31 6 37 5 5 0 27 -2 47 -3 23 -1 35 -6 31
-13 -3 -6 0 -5 8 2 18 17 88 15 124 -4 17 -9 57 -17 92 -17 33 -1 57 -5 52 -8
-6 -3 14 -6 43 -6 29 0 74 -4 101 -8 42 -7 45 -9 30 -21 -16 -11 -6 -13 69
-14 59 0 88 -4 91 -12 4 -10 6 -10 6 0 1 6 11 12 24 11 21 0 21 -1 2 -9 -18
-8 -17 -9 8 -9 17 -1 26 -5 22 -12 -4 -5 7 -15 24 -22 17 -6 31 -15 31 -19 0
-12 -74 5 -85 19 -8 11 -30 14 -90 10 -44 -2 -91 -7 -105 -11 -16 -4 -19 -4
-7 2 15 6 7 11 -35 24 -29 8 -75 16 -103 17 -27 1 -52 4 -55 7 -3 3 27 5 65 4
91 -2 93 -2 73 14 -21 15 -184 12 -235 -5 -19 -6 -41 -8 -49 -5 -8 3 -12 2 -9
-4 3 -5 -12 -7 -37 -4 -50 6 -48 -2 2 -11 43 -7 46 -11 20 -18 -12 -3 -18 -1
-13 5 3 6 2 8 -4 5 -5 -3 -31 0 -56 8 -40 12 -49 12 -61 0 -7 -8 -16 -11 -20
-8 -3 3 -11 1 -18 -5 -18 -14 -88 -32 -88 -22 0 4 15 10 32 14 43 9 88 29 88
40 0 4 -7 5 -16 2 -8 -3 -12 -2 -9 4 6 10 -14 16 -72 23 -22 2 -33 -1 -33 -9
0 -7 -8 -15 -17 -17 -15 -4 -15 -5 2 -6 13 -1 3 -9 -29 -24 -47 -22 -48 -23
-31 -41 10 -9 21 -13 24 -8 3 5 17 13 31 17 l25 7 -25 -25 c-14 -13 -29 -22
-34 -19 -5 3 -6 0 -2 -6 8 -13 36 -16 36 -4 0 4 9 8 20 8 11 0 20 -4 20 -8 0
-4 -5 -8 -12 -8 -6 0 -9 -2 -6 -5 9 -9 38 7 32 17 -4 6 1 8 12 4 11 -3 26 -1
34 4 8 5 11 10 7 10 -10 0 18 30 28 30 3 0 3 -5 -1 -12 -5 -8 -2 -9 9 -5 10 4
17 1 17 -5 0 -9 3 -9 12 0 17 17 33 15 18 -3 -11 -13 -8 -15 16 -16 28 -1 28
-1 -6 -9 -19 -5 -38 -6 -42 -4 -4 3 -16 0 -25 -6 -16 -9 -15 -10 5 -5 38 11
25 -2 -38 -37 -44 -24 -56 -35 -45 -41 9 -5 31 0 57 13 24 11 33 18 21 16 -28
-5 -31 10 -3 17 11 3 20 1 20 -5 0 -5 8 -7 18 -4 12 4 19 1 19 -7 0 -8 -5 -14
-11 -14 -34 1 -47 -4 -40 -15 4 -7 3 -8 -4 -4 -6 4 -24 0 -39 -8 -17 -9 -22
-16 -13 -16 8 -1 2 -8 -15 -15 -30 -13 -29 -13 25 -13 38 0 49 3 35 9 -16 6
-12 8 18 8 20 1 37 6 37 12 0 6 8 9 18 7 10 -3 23 1 30 9 7 7 9 13 5 13 -4 0
0 5 10 11 12 7 22 7 35 -1 14 -9 13 -10 -8 -4 -14 3 -22 3 -18 -1 4 -5 3 -14
-3 -22 -8 -9 -8 -13 -1 -13 6 0 14 5 17 10 3 6 25 10 48 10 49 0 110 33 82 44
-23 9 -27 8 -19 -5 4 -8 -1 -9 -16 -4 -15 5 -20 4 -16 -4 4 -6 -1 -14 -10 -18
-10 -4 -19 -2 -22 5 -2 7 -12 12 -23 12 -24 0 -25 20 -1 21 12 0 10 3 -7 10
-13 5 -26 7 -29 4 -3 -3 1 -5 9 -5 10 -1 8 -5 -5 -15 -26 -20 -45 -19 -20 1
18 14 18 15 -6 9 -23 -5 -23 -5 4 11 22 12 26 18 15 24 -8 6 6 8 36 7 28 -1
73 2 100 5 33 5 41 4 25 -1 l-25 -9 28 -1 c15 -1 27 -5 27 -11 0 -5 10 -10 23
-10 12 -1 33 -8 47 -16 17 -10 18 -13 5 -9 -49 17 -58 18 -50 6 5 -8 -3 -7
-23 3 -17 9 -41 16 -54 15 -26 0 -28 1 57 -35 44 -19 42 -18 68 -9 9 4 17 3
17 -3 0 -17 -44 -22 -67 -7 -28 18 -47 19 -61 2 -9 -10 -4 -16 19 -24 16 -6
27 -7 23 -2 -8 14 14 11 41 -7 13 -8 49 -17 79 -19 31 -2 69 -6 86 -10 19 -4
30 -3 30 4 0 7 11 9 28 6 l27 -6 -28 16 c-15 9 -31 14 -36 11 -4 -3 -17 1 -27
9 -17 13 -17 14 -2 15 10 0 42 -9 73 -21 31 -12 59 -18 62 -15 4 3 -1 6 -11 6
-9 0 -14 5 -11 10 4 6 -6 10 -22 10 -15 0 -35 5 -43 10 -12 8 -10 10 10 11 18
1 13 4 -15 10 -38 7 -37 8 13 5 28 -2 52 1 52 6 0 5 4 7 10 3 5 -3 25 -6 45
-7 22 -1 31 -4 23 -9 -7 -5 -22 -6 -33 -3 -11 3 -32 0 -45 -6 -25 -10 -25 -10
3 -5 17 3 26 2 23 -4 -3 -5 2 -7 13 -4 10 3 33 -3 50 -11 26 -14 39 -15 72 -6
22 6 50 8 62 4 12 -4 34 -6 50 -5 15 1 27 -2 27 -7 0 -6 10 -10 23 -10 45 -2
72 -7 79 -17 4 -6 8 -2 8 8 0 15 5 17 23 10 12 -4 40 -7 62 -6 30 1 35 -1 20
-7 -14 -6 -15 -9 -4 -9 8 -1 20 4 27 11 8 8 15 8 28 -3 15 -12 17 -12 9 0 -6
11 -4 13 8 8 27 -10 20 1 -10 17 -37 20 -11 20 30 1 l32 -16 -22 20 c-13 10
-23 23 -23 27 0 4 5 3 12 -4 7 -7 19 -12 28 -12 12 1 11 4 -4 15 -19 15 -19
15 2 15 13 0 22 -6 22 -16 0 -8 5 -12 11 -8 6 3 8 17 4 33 -5 20 -4 23 6 14 9
-9 15 -8 26 3 19 19 33 9 33 -22 0 -14 4 -23 10 -19 5 3 7 12 3 20 -7 20 11
19 31 -1 18 -18 20 -7 6 30 -7 20 -6 26 4 26 15 0 26 -21 26 -51 0 -10 5 -19
11 -19 8 0 10 12 6 35 -3 19 -2 35 4 35 5 0 9 -8 9 -17 0 -11 3 -14 8 -7 4 6
17 14 29 18 16 5 25 2 33 -14 6 -11 17 -20 25 -20 8 0 15 -5 15 -11 0 -5 5 -7
10 -4 6 4 8 16 4 27 -4 12 -1 24 7 29 19 11 29 2 29 -28 0 -23 2 -24 17 -12
11 10 14 10 9 2 -10 -19 19 -16 34 2 7 8 17 15 22 15 5 0 0 -10 -12 -22 -24
-26 -26 -38 -5 -38 13 0 20 -18 16 -42 0 -5 6 -8 15 -8 9 0 13 5 9 13 -4 6 0
5 7 -4 7 -9 29 -26 48 -37 67 -41 189 -137 190 -149 0 -7 6 -13 14 -13 8 0 26
-16 42 -35 15 -19 30 -31 34 -26 3 5 41 -23 85 -63 67 -61 87 -87 120 -156 22
-46 49 -93 61 -105 29 -29 104 -159 126 -219 10 -28 28 -85 39 -126 11 -41 27
-100 36 -130 8 -30 20 -71 25 -90 5 -19 12 -66 14 -105 3 -38 10 -83 16 -98 9
-23 8 -31 -3 -38 -12 -8 -12 -10 1 -19 12 -7 12 -12 2 -22 -6 -6 -12 -27 -12
-46 0 -18 -4 -31 -9 -28 -5 3 -12 -1 -15 -10 -3 -8 -2 -12 4 -9 6 3 10 -1 10
-9 0 -9 -5 -16 -11 -16 -7 0 -10 -23 -7 -64 2 -37 -1 -62 -6 -58 -5 3 -6 -2
-3 -12 7 -18 -11 -114 -26 -133 -5 -7 -14 -11 -20 -10 -6 1 -14 -16 -19 -38
-23 -124 -37 -243 -42 -345 -3 -69 -2 -93 3 -60 8 59 52 189 76 223 8 12 15
33 15 47 0 15 7 35 15 46 8 10 15 33 15 51 0 17 9 85 19 150 11 65 22 145 25
178 10 116 26 260 31 297 4 20 2 52 -3 72 -7 23 -7 36 0 38 6 2 6 33 -2 86 -7
46 -10 98 -7 116 3 19 2 49 -3 67 -5 19 -16 63 -25 99 -9 36 -23 77 -31 93 -9
15 -14 37 -13 50 2 12 -1 33 -5 47 -5 13 -9 41 -10 62 -1 20 -10 46 -20 57
-10 11 -15 25 -11 30 3 6 -1 14 -9 17 -9 3 -13 10 -10 15 13 22 -8 49 -37 49
-21 0 -32 6 -38 23 -5 12 -17 31 -28 42 -23 25 -23 50 0 49 9 -1 17 4 17 11 0
8 -9 11 -24 8 -13 -3 -27 0 -31 6 -4 7 -1 10 7 9 8 -2 12 5 10 21 -3 30 -21
53 -35 44 -6 -3 -7 -1 -3 5 4 6 -9 21 -29 35 -19 13 -32 27 -28 30 3 4 -1 7
-9 7 -9 0 -19 7 -22 16 -9 24 -7 36 6 28 7 -4 8 -3 4 4 -4 7 -15 12 -25 12
-26 0 -62 45 -48 60 9 8 -3 24 -48 65 -38 35 -63 51 -69 45 -16 -16 -30 -11
-16 5 10 12 8 22 -15 56 -15 23 -36 44 -47 47 -11 3 -41 16 -67 28 -25 13 -56
24 -68 24 -12 0 -25 5 -28 10 -3 6 -1 10 5 10 7 0 5 6 -4 15 -8 8 -19 15 -24
15 -14 0 -42 35 -42 53 0 26 -62 67 -93 61 -15 -2 -27 -1 -27 4 0 8 -55 43
-65 42 -17 -2 -55 14 -55 23 0 6 -3 7 -7 4 -10 -11 28 -47 51 -47 12 0 27 -9
33 -19 12 -19 11 -19 -20 -9 -18 6 -45 23 -62 37 -39 35 -77 51 -123 51 -27 0
-33 3 -22 10 10 6 -9 8 -55 5 -66 -3 -68 -3 -36 9 28 10 31 14 17 19 -23 9
-24 9 -28 -5z m-141 -60 c10 -8 211 -30 232 -26 3 1 17 -3 31 -10 14 -6 38
-13 54 -17 15 -3 26 -9 22 -12 -12 -12 137 -98 153 -89 4 3 17 -1 27 -9 54
-41 -92 10 -154 53 -15 11 -34 19 -42 20 -8 0 -46 12 -85 27 -41 16 -99 29
-140 32 -38 3 -85 11 -104 19 -42 18 -59 18 -95 -1 -38 -20 -56 -19 -27 1 18
13 20 18 10 25 -8 4 13 5 46 2 33 -3 66 -10 72 -15z m229 11 c4 -8 -3 -9 -25
-4 -20 4 -31 3 -31 -4 0 -9 -11 -10 -55 0 -12 2 50 16 82 18 12 0 25 -4 29
-10z m84 -6 c0 -12 -58 -14 -65 -3 -4 6 9 10 29 10 20 0 36 -3 36 -7z m5 -33
c3 -5 -1 -10 -9 -10 -8 0 -18 5 -21 10 -3 6 1 10 9 10 8 0 18 -4 21 -10z
m-475 -4 c0 -11 -19 -15 -25 -6 -3 5 1 10 9 10 9 0 16 -2 16 -4z m94 -65 c-2
-3 -12 3 -22 13 -16 17 -16 18 5 5 12 -7 20 -15 17 -18z m506 3 c0 -2 -9 0
-20 6 -11 6 -20 13 -20 16 0 2 9 0 20 -6 11 -6 20 -13 20 -16z m-693 -30 c-3
-3 -12 -4 -19 -1 -8 3 -5 6 6 6 11 1 17 -2 13 -5z m-281 -25 c4 -7 25 -9 63
-4 92 12 124 13 175 7 l49 -5 -28 -14 c-21 -12 -55 -14 -150 -10 -123 5 -150
10 -140 28 8 12 22 11 31 -2z m327 -6 c-7 -2 -19 -2 -25 0 -7 3 -2 5 12 5 14
0 19 -2 13 -5z m-383 -7 c0 -2 -7 -6 -15 -10 -8 -3 -15 -1 -15 4 0 6 7 10 15
10 8 0 15 -2 15 -4z m139 -40 c-2 -2 -17 -6 -34 -10 -22 -5 -26 -4 -15 4 14 9
59 15 49 6z m1007 -22 c18 -14 18 -14 -6 -3 -31 14 -36 19 -24 19 6 0 19 -7
30 -16z m63 -7 c0 -9 -2 -8 -6 1 -2 6 -10 9 -15 6 -7 -4 -8 -2 -4 5 9 13 26 5
25 -12z m-769 -2 c0 -2 -6 -5 -13 -8 -8 -3 -14 1 -14 8 0 7 6 11 14 8 7 -3 13
-6 13 -8z m-440 -11 c0 -2 -7 -4 -15 -4 -8 0 -15 4 -15 10 0 5 7 7 15 4 8 -4
15 -8 15 -10z m390 12 c0 -2 -13 -6 -29 -8 -17 -2 -28 -1 -25 4 5 8 54 12 54
4z m817 -69 c15 -3 20 -1 16 9 -3 8 -10 11 -17 7 -6 -3 -8 -3 -4 2 4 4 -3 16
-15 27 -12 11 -15 16 -7 12 8 -4 23 -14 32 -22 10 -8 24 -12 32 -9 8 3 33 -3
55 -14 51 -24 54 -33 4 -12 -26 10 -38 12 -41 4 -2 -6 -8 -9 -13 -5 -5 3 -9 0
-9 -5 0 -6 -6 -11 -12 -11 -17 0 -138 57 -138 65 0 3 9 1 19 -5 11 -5 26 -10
33 -9 10 0 10 2 1 6 -7 2 -13 10 -13 16 0 7 13 -2 28 -19 15 -18 37 -34 49
-37z m-1075 21 c-9 -9 -15 -9 -24 0 -9 9 -7 12 12 12 19 0 21 -3 12 -12z
m-712 -18 c-20 -13 -43 -13 -35 0 3 6 16 10 28 10 18 0 19 -2 7 -10z m305 -20
c3 -6 -1 -7 -9 -4 -18 7 -21 14 -7 14 6 0 13 -4 16 -10z m781 1 c-7 -11 -66
-20 -66 -10 0 4 15 10 33 12 17 2 33 5 35 5 2 1 1 -2 -2 -7z m-651 -11 c13 -5
14 -9 5 -9 -8 0 -24 4 -35 9 -13 5 -14 9 -5 9 8 0 24 -4 35 -9z m-82 -27 c-16
-12 -15 -13 3 -14 10 -1 -1 -5 -26 -10 -52 -10 -160 -3 -174 11 -7 7 -3 10 10
11 18 0 18 1 -1 8 -11 5 29 8 93 7 92 -1 109 -3 95 -13z m154 1 c-3 -3 -12 -4
-19 -1 -8 3 -5 6 6 6 11 1 17 -2 13 -5z m243 1 c0 -6 -32 -19 -70 -29 -14 -3
-7 3 15 13 42 21 55 24 55 16z m601 -12 c13 -17 13 -17 -6 -3 -11 8 -22 16
-24 17 -2 2 0 3 6 3 6 0 17 -8 24 -17z m-928 -10 c-7 -2 -19 -2 -25 0 -7 3 -2
5 12 5 14 0 19 -2 13 -5z m44 -10 c-27 -4 -28 -5 -10 -18 17 -13 16 -14 -12
-15 -38 0 -75 10 -75 21 0 8 49 15 100 16 21 0 21 -1 -3 -4z m343 3 c0 -2 -7
-7 -16 -10 -8 -3 -12 -2 -9 4 6 10 25 14 25 6z m616 -26 c8 0 14 -7 14 -15 0
-14 -3 -14 -24 1 -17 10 -23 21 -18 32 6 16 7 16 10 0 2 -10 10 -18 18 -18z
m-811 -4 c11 -7 27 -16 35 -19 8 -2 4 -3 -10 -1 -14 1 -34 6 -45 10 l-20 7 20
-17 c19 -16 19 -16 -7 -6 -18 6 -29 6 -33 -1 -4 -5 -19 -7 -33 -5 -15 2 -34 5
-41 5 -31 2 6 21 48 26 24 2 46 6 49 9 8 9 16 7 37 -8z m105 -6 c0 -5 10 -10
23 -11 l22 0 -23 -9 c-17 -7 -31 -4 -55 10 l-32 20 33 0 c17 0 32 -4 32 -10z
m1195 0 c3 -5 1 -10 -4 -10 -6 0 -11 5 -11 10 0 6 2 10 4 10 3 0 8 -4 11 -10z
m-1800 -10 c-3 -5 -10 -10 -16 -10 -5 0 -9 5 -9 10 0 6 7 10 16 10 8 0 12 -4
9 -10z m1205 0 c8 -5 11 -10 5 -10 -5 0 -17 5 -25 10 -8 5 -10 10 -5 10 6 0
17 -5 25 -10z m-760 -34 c0 -11 -19 -15 -25 -6 -3 5 1 10 9 10 9 0 16 -2 16
-4z m-190 -26 c0 -5 -5 -10 -11 -10 -5 0 -7 5 -4 10 3 6 8 10 11 10 2 0 4 -4
4 -10z m450 -10 c0 -9 -48 -1 -55 9 -2 4 9 5 26 3 16 -2 29 -8 29 -12z m-323
4 c-3 -3 -12 -4 -19 -1 -8 3 -5 6 6 6 11 1 17 -2 13 -5z m450 0 c-3 -3 -12 -4
-19 -1 -8 3 -5 6 6 6 11 1 17 -2 13 -5z m-402 -14 c3 -5 -3 -10 -15 -10 -12 0
-18 5 -15 10 3 6 10 10 15 10 5 0 12 -4 15 -10z m1752 -126 c-3 -3 -12 -4 -19
-1 -8 3 -5 6 6 6 11 1 17 -2 13 -5z m370 -1046 c-3 -8 -6 -5 -6 6 -1 11 2 17
5 13 3 -3 4 -12 1 -19z m-97 -798 c0 -5 -4 -10 -10 -10 -5 0 -10 5 -10 10 0 6
5 10 10 10 6 0 10 -4 10 -10z"/>
<path d="M5358 11323 c7 -3 16 -2 19 1 4 3 -2 6 -13 5 -11 0 -14 -3 -6 -6z"/>
<path d="M5358 11453 c12 -2 30 -2 40 0 9 3 -1 5 -23 4 -22 0 -30 -2 -17 -4z"/>
<path d="M5085 11440 c-4 -6 5 -10 20 -10 15 0 24 4 20 10 -3 6 -12 10 -20 10
-8 0 -17 -4 -20 -10z"/>
<path d="M5025 11430 c-3 -5 -16 -11 -28 -11 -16 -1 -17 -3 -5 -6 9 -2 29 3
45 11 19 10 22 15 11 16 -9 0 -20 -4 -23 -10z"/>
<path d="M5268 11433 c6 -2 18 -2 25 0 6 3 1 5 -13 5 -14 0 -19 -2 -12 -5z"/>
<path d="M4398 11373 c7 -3 16 -2 19 1 4 3 -2 6 -13 5 -11 0 -14 -3 -6 -6z"/>
<path d="M4771 11366 c11 -9 69 -15 64 -6 -3 6 -20 10 -37 10 -17 0 -29 -2
-27 -4z"/>
<path d="M4920 11326 c0 -2 9 -6 20 -9 11 -3 20 -1 20 4 0 5 -9 9 -20 9 -11 0
-20 -2 -20 -4z"/>
<path d="M4350 11260 c-13 -9 -13 -10 0 -10 8 0 22 5 30 10 13 9 13 10 0 10
-8 0 -22 -5 -30 -10z"/>
<path d="M4453 11263 c9 -2 25 -2 35 0 9 3 1 5 -18 5 -19 0 -27 -2 -17 -5z"/>
<path d="M4236 11233 c-6 -14 -5 -15 5 -6 7 7 10 15 7 18 -3 3 -9 -2 -12 -12z"/>
<path d="M4668 11243 c-28 -7 -21 -21 7 -15 14 2 22 8 19 13 -3 5 -6 8 -7 8
-1 -1 -10 -3 -19 -6z"/>
<path d="M4395 11230 c-3 -5 -15 -10 -26 -10 -10 0 -19 -4 -19 -9 0 -13 37 -2
51 15 6 8 9 14 6 14 -3 0 -9 -4 -12 -10z"/>
<path d="M4380 11183 c-13 -15 -12 -16 4 -10 10 4 25 7 34 7 15 0 15 2 2 10
-20 13 -22 12 -40 -7z"/>
<path d="M5094 11164 c22 -8 42 -12 45 -8 10 9 -23 24 -54 23 -29 0 -29 -1 9
-15z"/>
<path d="M4240 11154 c-35 -19 -1 -18 36 1 23 12 25 15 9 14 -11 -1 -31 -7
-45 -15z"/>
<path d="M4072 11090 c-28 -27 -46 -50 -42 -50 5 0 32 23 60 50 28 28 47 50
41 50 -5 0 -31 -22 -59 -50z"/>
<path d="M4798 11068 c9 -9 15 -9 24 0 9 9 7 12 -12 12 -19 0 -21 -3 -12 -12z"/>
<path d="M4438 11063 c-10 -2 -18 -9 -18 -14 0 -6 8 -5 20 1 11 6 20 13 20 15
0 3 -1 4 -2 4 -2 -1 -11 -3 -20 -6z"/>
<path d="M4538 11063 c-10 -2 -18 -9 -18 -14 0 -6 8 -5 20 1 11 6 20 13 20 15
0 3 -1 4 -2 4 -2 -1 -11 -3 -20 -6z"/>
<path d="M4752 11056 c8 -7 27 -13 43 -13 l28 0 -24 13 c-13 7 -32 13 -42 14
-16 0 -16 -2 -5 -14z"/>
<path d="M4296 11044 c-6 -15 -4 -15 11 -3 10 7 20 15 22 16 2 2 -3 3 -11 3
-9 0 -19 -7 -22 -16z"/>
<path d="M6060 11051 c0 -5 9 -11 21 -14 16 -4 18 -3 8 9 -13 16 -29 19 -29 5z"/>
<path d="M4465 11025 c-16 -13 -24 -24 -17 -25 6 0 12 3 12 8 0 4 12 15 28 24
15 10 23 18 17 18 -5 0 -23 -11 -40 -25z"/>
<path d="M4065 10989 c-58 -29 -193 -154 -180 -168 4 -3 13 2 20 12 7 10 17
19 22 19 21 1 31 11 26 24 -3 8 -1 14 3 14 5 0 25 14 44 31 19 16 49 37 65 46
29 15 29 14 -6 -18 -20 -19 -50 -44 -65 -56 -16 -12 -26 -25 -22 -28 3 -3 12
0 19 8 8 7 47 35 87 61 46 31 72 54 70 64 -5 24 -19 23 -83 -9z"/>
<path d="M4260 11001 c0 -8 -3 -11 -6 -8 -4 3 -16 1 -28 -5 -11 -7 -24 -12
-27 -11 -3 1 -19 -11 -34 -27 -16 -17 -35 -30 -42 -30 -8 0 -11 -4 -8 -10 10
-16 17 -12 59 25 35 31 54 40 79 36 4 0 7 3 7 8 0 5 9 13 20 16 11 3 20 10 20
15 0 5 -9 8 -20 7 -11 -1 -20 -8 -20 -16z"/>
<path d="M4460 10980 c-9 -6 -10 -10 -3 -10 6 0 15 5 18 10 8 12 4 12 -15 0z"/>
<path d="M4826 10975 c10 -8 28 -14 39 -14 14 0 10 4 -14 14 -42 19 -50 19
-25 0z"/>
<path d="M6750 10982 c0 -5 7 -15 15 -22 8 -7 15 -8 15 -2 0 5 -7 15 -15 22
-8 7 -15 8 -15 2z"/>
<path d="M4778 10973 c7 -3 16 -2 19 1 4 3 -2 6 -13 5 -11 0 -14 -3 -6 -6z"/>
<path d="M5245 10950 c3 -5 11 -10 16 -10 6 0 7 5 4 10 -3 6 -11 10 -16 10 -6
0 -7 -4 -4 -10z"/>
<path d="M5485 10950 c11 -5 27 -9 35 -9 9 0 8 4 -5 9 -11 5 -27 9 -35 9 -9 0
-8 -4 5 -9z"/>
<path d="M4715 10940 c-18 -8 -17 -9 7 -9 15 -1 30 4 33 9 7 12 -12 12 -40 0z"/>
<path d="M4790 10940 c-9 -6 -10 -10 -3 -10 6 0 15 5 18 10 8 12 4 12 -15 0z"/>
<path d="M5148 10933 c7 -3 16 -2 19 1 4 3 -2 6 -13 5 -11 0 -14 -3 -6 -6z"/>
<path d="M5288 10933 c7 -3 16 -2 19 1 4 3 -2 6 -13 5 -11 0 -14 -3 -6 -6z"/>
<path d="M5468 10933 c7 -3 16 -2 19 1 4 3 -2 6 -13 5 -11 0 -14 -3 -6 -6z"/>
<path d="M5794 10931 c7 -11 46 -35 46 -28 0 3 -12 12 -26 22 -15 9 -23 12
-20 6z"/>
<path d="M4614 10915 c-20 -15 -11 -18 20 -6 11 4 15 10 9 14 -5 3 -19 0 -29
-8z"/>
<path d="M5358 10918 c5 -5 16 -8 23 -6 8 3 3 7 -10 11 -17 4 -21 3 -13 -5z"/>
<path d="M5400 10926 c0 -2 11 -6 25 -8 13 -3 22 -1 19 3 -5 9 -44 13 -44 5z"/>
<path d="M4080 10888 c-12 -22 -12 -22 6 -6 10 10 15 20 12 24 -4 3 -12 -5
-18 -18z"/>
<path d="M4645 10895 c-16 -7 -23 -14 -15 -14 25 -1 60 11 60 20 0 12 -9 11
-45 -6z"/>
<path d="M4988 10893 c7 -3 16 -2 19 1 4 3 -2 6 -13 5 -11 0 -14 -3 -6 -6z"/>
<path d="M5508 10893 c6 -2 18 -2 25 0 6 3 1 5 -13 5 -14 0 -19 -2 -12 -5z"/>
<path d="M5045 10880 c30 -8 172 -13 164 -6 -2 2 -47 6 -99 8 -52 3 -81 2 -65
-2z"/>
<path d="M4117 10873 c-10 -9 -9 -23 2 -23 5 0 11 7 15 15 5 15 -5 20 -17 8z"/>
<path d="M4758 10863 c7 -3 16 -2 19 1 4 3 -2 6 -13 5 -11 0 -14 -3 -6 -6z"/>
<path d="M6850 10860 c0 -5 5 -10 10 -10 6 0 10 5 10 10 0 6 -4 10 -10 10 -5
0 -10 -4 -10 -10z"/>
<path d="M4718 10853 c7 -3 16 -2 19 1 4 3 -2 6 -13 5 -11 0 -14 -3 -6 -6z"/>
<path d="M4644 10835 c-18 -14 -18 -14 4 -8 12 3 22 9 22 14 0 12 -3 11 -26
-6z"/>
<path d="M4041 10785 c-30 -30 -59 -55 -64 -55 -6 0 -8 -3 -4 -6 6 -6 -16 -34
-28 -34 -15 0 -46 -40 -40 -51 6 -9 12 -7 22 6 7 11 13 14 13 7 0 -6 -22 -35
-50 -64 -27 -29 -50 -56 -50 -61 0 -4 -4 -6 -9 -3 -5 4 -7 -4 -4 -16 4 -19 3
-20 -6 -8 -6 8 -11 10 -11 4 0 -18 13 -24 27 -13 10 9 13 8 13 -1 0 -18 28 20
100 138 35 57 85 128 112 158 65 70 49 69 -21 -1z"/>
<path d="M3923 10806 c-13 -13 -23 -28 -23 -34 0 -6 -6 -12 -12 -15 -8 -2 -9
-8 -4 -13 5 -5 11 -4 13 4 3 6 9 10 14 7 5 -4 6 1 3 9 -3 8 2 17 13 20 23 7
49 46 31 46 -7 0 -23 -11 -35 -24z"/>
<path d="M3857 10804 c-3 -3 -3 -12 0 -19 2 -8 -1 -22 -7 -32 -10 -16 -11 -16
-6 0 3 9 3 17 1 17 -7 0 -43 -78 -50 -109 -3 -16 -14 -37 -23 -47 -10 -11 -19
-29 -20 -41 -1 -13 -3 -33 -4 -45 -1 -13 -8 -29 -15 -36 -21 -22 -15 -37 7
-17 15 14 20 15 20 4 0 -12 2 -12 9 1 6 8 7 18 5 22 -8 12 6 48 18 48 5 0 7
-8 4 -17 -5 -16 -4 -15 9 1 8 10 12 23 9 27 -2 4 11 38 31 76 38 73 46 104 20
83 -19 -16 -19 -11 2 30 12 24 13 35 5 38 -7 2 -10 8 -6 13 6 10 1 12 -9 3z
m-16 -114 c0 8 3 10 5 4 6 -15 -40 -113 -71 -149 -14 -16 -25 -25 -25 -19 0 6
6 17 14 24 8 6 14 17 12 23 -1 7 -1 8 2 4 2 -5 10 4 18 18 8 15 11 32 7 38 -3
5 -1 7 4 4 14 -9 25 20 18 47 -5 17 -4 18 4 6 10 -13 11 -13 12 0z"/>
<path d="M3886 10613 c-6 -14 -5 -15 5 -6 7 7 10 15 7 18 -3 3 -9 -2 -12 -12z"/>
<path d="M3782 10464 c-8 -15 -9 -32 -4 -41 8 -13 10 -13 15 1 4 10 3 15 -3
11 -13 -8 -13 1 1 27 6 11 9 22 6 24 -2 2 -9 -7 -15 -22z"/>
<path d="M3696 10437 c3 -10 9 -15 12 -12 3 3 0 11 -7 18 -10 9 -11 8 -5 -6z"/>
<path d="M3815 10429 c-4 -6 -5 -12 -2 -15 2 -3 7 2 10 11 7 17 1 20 -8 4z"/>
<path d="M4475 9320 c-3 -5 1 -10 9 -10 8 0 18 5 21 10 3 6 -1 10 -9 10 -8 0
-18 -4 -21 -10z"/>
<path d="M4683 9314 c-23 -17 -36 -18 -27 -1 6 10 4 10 -7 0 -16 -16 -71 -17
-85 -3 -7 7 -24 6 -53 -5 -49 -17 -65 -19 -57 -6 3 4 -24 8 -59 7 -49 -1 -62
-4 -51 -12 11 -8 2 -10 -37 -11 -31 0 -44 2 -33 7 19 6 19 7 -2 12 -17 5 -23
1 -28 -18 -6 -24 -14 -28 -44 -25 -13 2 -13 1 0 -8 8 -6 33 -11 55 -12 29 0
35 -2 20 -8 -15 -6 -11 -9 20 -14 22 -4 60 -7 85 -7 28 0 40 -3 32 -9 -16 -10
129 -31 216 -31 34 0 62 -4 62 -9 0 -5 18 -12 40 -16 22 -4 40 -11 40 -17 0
-5 10 -8 23 -7 12 2 35 -4 52 -13 29 -16 30 -15 45 8 l16 23 28 -24 c34 -29
37 -30 30 -10 -5 12 2 15 29 15 24 0 37 5 42 18 6 16 7 16 20 -1 12 -16 13
-16 19 -1 4 9 4 19 1 22 -3 3 -5 1 -5 -4 -1 -5 -8 7 -16 26 -12 27 -17 31 -24
20 -5 -8 -12 -11 -16 -7 -4 4 -2 13 4 19 7 7 12 17 12 23 0 5 -5 3 -10 -5 -6
-9 -13 -11 -17 -5 -21 27 -77 46 -142 48 -38 1 -67 5 -64 10 2 4 -8 5 -24 2
l-28 -6 25 15 c25 15 24 15 -15 10 -27 -4 -36 -2 -27 4 11 7 9 10 -7 15 -11 2
-28 -1 -38 -9z m-246 -30 c-3 -3 -12 -4 -19 -1 -8 3 -5 6 6 6 11 1 17 -2 13
-5z m-147 -30 c0 -2 -9 -4 -20 -4 -11 0 -20 4 -20 9 0 5 9 7 20 4 11 -3 20 -7
20 -9z m747 -81 c0 -16 -6 -16 -36 1 l-24 13 30 -1 c16 0 30 -7 30 -13z m-162
-53 c3 -6 -1 -7 -9 -4 -18 7 -21 14 -7 14 6 0 13 -4 16 -10z"/>
<path d="M4588 9313 c6 -2 18 -2 25 0 6 3 1 5 -13 5 -14 0 -19 -2 -12 -5z"/>
<path d="M6370 9275 c7 -8 7 -15 1 -19 -5 -3 -11 -2 -13 3 -1 4 -14 11 -28 15
-17 5 -21 4 -12 -2 21 -14 -31 -21 -76 -11 -20 5 -50 6 -67 3 -16 -3 -73 -1
-125 4 -57 6 -117 6 -150 1 -30 -5 -61 -10 -69 -11 -17 -2 -51 -29 -51 -40 0
-16 -34 -47 -40 -37 -4 5 -7 -14 -7 -43 0 -29 2 -43 4 -30 3 13 11 26 19 29 8
3 14 11 14 19 0 8 5 14 10 14 16 0 12 -12 -12 -37 -27 -29 -20 -37 16 -18 37
19 39 19 26 -6 -14 -26 -6 -36 15 -19 12 10 22 10 39 2 16 -7 27 -7 34 0 11
11 32 3 32 -12 0 -5 -8 -7 -17 -4 -16 5 -16 4 0 -6 15 -9 22 -9 36 4 10 9 35
16 57 17 29 0 34 2 19 8 -18 7 30 12 280 27 50 2 99 7 111 9 11 3 35 0 53 -5
35 -10 103 -2 95 11 -3 5 1 9 10 9 8 0 16 -5 18 -10 2 -6 16 -8 35 -4 38 8 35
20 -8 29 -28 6 -29 8 -12 21 26 20 52 18 27 -2 -18 -15 -18 -15 6 -10 14 3 32
6 40 6 13 0 13 1 0 10 -8 5 -10 10 -4 10 6 0 23 -10 38 -21 15 -12 29 -19 32
-16 11 11 -64 56 -104 63 -23 4 -42 10 -42 15 0 5 -6 9 -13 9 -7 0 -18 9 -25
20 -7 12 -17 18 -22 15 -6 -4 -7 -11 -4 -17 5 -7 1 -9 -9 -5 -8 3 -20 0 -27
-7 -8 -10 -7 -15 6 -20 21 -8 26 -8 20 2 -2 4 3 13 13 19 14 9 18 8 18 -3 0
-7 -5 -10 -10 -7 -7 4 -8 -1 -3 -13 4 -10 4 -15 0 -11 -4 4 -13 -1 -20 -11
-11 -15 -16 -15 -36 -3 -12 8 -34 17 -48 22 -23 7 -22 7 10 9 l35 2 -29 8
c-16 5 -32 14 -36 20 -4 6 -19 13 -34 14 -20 3 -24 0 -16 -9z m-470 -19 c0 -9
-30 -14 -35 -6 -4 6 3 10 14 10 12 0 21 -2 21 -4z m307 -2 c-3 -3 -12 -4 -19
-1 -8 3 -5 6 6 6 11 1 17 -2 13 -5z m-367 -24 c-8 -5 -17 -7 -19 -4 -3 3 1 9
9 14 8 5 17 7 19 4 3 -3 -1 -9 -9 -14z m297 14 c-3 -3 -12 -4 -19 -1 -8 3 -5
6 6 6 11 1 17 -2 13 -5z m197 -6 c-3 -4 -11 -5 -19 -1 -21 7 -19 12 4 10 11 0
18 -5 15 -9z m76 4 c0 -4 -9 -8 -19 -8 -11 0 -17 4 -15 8 3 4 12 8 20 8 8 0
14 -4 14 -8z m217 -28 c-3 -3 -12 -4 -19 -1 -8 3 -5 6 6 6 11 1 17 -2 13 -5z
m-650 -110 c-3 -3 -12 -4 -19 -1 -8 3 -5 6 6 6 11 1 17 -2 13 -5z"/>
<path d="M4170 9230 c-13 -8 -12 -10 3 -10 9 0 17 5 17 10 0 12 -1 12 -20 0z"/>
<path d="M6485 9220 c3 -5 13 -10 21 -10 8 0 12 5 9 10 -3 6 -13 10 -21 10 -8
0 -12 -4 -9 -10z"/>
<path d="M5091 9174 c0 -11 3 -14 6 -6 3 7 2 16 -1 19 -3 4 -6 -2 -5 -13z"/>
<path d="M6670 9170 c-24 -8 -23 -8 8 -9 20 -1 31 3 27 9 -3 6 -7 10 -8 9 -1
-1 -13 -5 -27 -9z"/>
<path d="M6695 9140 c-16 -7 -17 -9 -3 -9 9 -1 20 4 23 9 7 11 7 11 -20 0z"/>
<path d="M4680 9136 c0 -2 11 -6 25 -8 13 -3 22 -1 19 3 -5 9 -44 13 -44 5z"/>
<path d="M6738 9133 c7 -3 16 -2 19 1 4 3 -2 6 -13 5 -11 0 -14 -3 -6 -6z"/>
<path d="M6645 9123 c11 -3 24 -9 30 -14 5 -5 18 -9 30 -8 16 0 14 3 -10 14
-16 8 -39 14 -50 13 l-20 0 20 -5z"/>
<path d="M6578 9113 c6 -2 18 -2 25 0 6 3 1 5 -13 5 -14 0 -19 -2 -12 -5z"/>
<path d="M4445 9080 c-83 -18 -191 -80 -240 -138 -34 -41 -20 -35 45 19 67 56
116 77 212 92 96 16 256 4 270 -19 4 -6 20 -15 34 -18 32 -8 74 -35 74 -47 0
-13 -50 -11 -96 6 -22 7 -75 13 -116 13 -42 0 -80 2 -86 6 -5 3 -13 -1 -16
-10 -4 -9 -9 -14 -13 -11 -3 4 -15 1 -27 -5 -11 -7 -25 -12 -31 -13 -24 -2
-135 -40 -182 -63 -49 -22 -68 -42 -42 -42 5 0 8 -4 4 -9 -3 -6 4 -8 16 -6 13
3 26 10 30 16 5 8 8 8 13 0 4 -6 2 -11 -3 -11 -6 0 -11 -5 -11 -11 0 -8 4 -8
13 0 10 8 17 7 27 -2 12 -10 12 -9 2 4 -11 14 -8 21 18 43 18 14 40 26 51 26
11 0 29 5 40 10 16 9 19 7 19 -13 0 -13 9 -42 20 -65 11 -22 20 -46 20 -51 0
-20 40 -31 117 -31 54 0 85 5 100 15 28 20 55 101 47 146 -5 30 -4 32 9 17 8
-10 17 -15 20 -11 4 3 7 0 7 -7 0 -7 3 -11 6 -7 11 11 63 -15 69 -34 4 -11 10
-17 15 -14 5 3 12 0 16 -6 3 -6 1 -15 -6 -19 -7 -4 -9 -13 -6 -19 4 -6 0 -11
-10 -11 -25 0 -124 -32 -124 -41 0 -3 18 -6 39 -5 22 0 34 4 28 8 -7 4 3 8 23
8 26 0 31 -3 20 -10 -13 -8 -12 -10 3 -10 9 0 17 4 17 9 0 6 28 9 62 9 38 -1
63 3 66 11 2 6 10 11 18 11 24 0 16 18 -28 67 -28 30 -39 48 -30 51 10 3 10 7
0 20 -7 10 4 5 24 -11 20 -15 42 -27 48 -27 6 0 13 -6 16 -14 6 -17 53 -35 72
-28 8 2 10 8 4 15 -5 7 -12 20 -16 31 -5 14 -2 17 9 12 8 -3 15 -3 15 1 0 14
-52 73 -65 73 -8 0 -19 9 -25 19 -6 12 -26 22 -52 26 -24 4 -70 20 -102 36
-66 33 -70 34 -60 18 5 -8 -3 -10 -27 -5 -56 11 -321 16 -364 6z m185 -185 c0
-16 -27 -32 -37 -22 -3 4 -3 13 0 22 8 20 37 20 37 0z m51 -8 c-10 -9 -11 -8
-5 6 3 10 9 15 12 12 3 -3 0 -11 -7 -18z m254 -77 c-3 -5 -11 -10 -16 -10 -6
0 -7 5 -4 10 3 6 11 10 16 10 6 0 7 -4 4 -10z"/>
<path d="M5938 9022 c-34 -6 -73 -20 -86 -30 -13 -9 -43 -27 -66 -39 -35 -20
-40 -28 -13 -24 12 2 8 -11 -10 -32 -17 -19 -17 -19 7 -12 14 4 38 14 54 22
26 14 28 13 23 -1 -4 -11 -1 -16 10 -16 14 0 14 -2 -2 -20 -10 -11 -27 -22
-38 -26 -25 -8 -57 -45 -50 -57 10 -17 61 -30 148 -37 50 -4 106 -12 125 -18
l35 -11 -30 24 c-16 13 -31 22 -33 20 -2 -2 -24 7 -49 20 -25 12 -53 20 -63
18 -10 -3 -21 0 -24 6 -5 7 2 11 16 11 13 0 36 13 51 30 16 17 34 31 40 31 38
4 54 8 69 14 15 6 16 3 8 -25 -11 -40 6 -124 31 -146 12 -11 46 -17 116 -21
l98 -6 27 39 c24 37 44 89 39 107 -3 14 60 -27 80 -52 25 -31 24 -33 -8 -54
l-28 -18 26 5 c14 3 29 2 33 -1 9 -9 75 -12 74 -4 -2 18 4 22 16 12 9 -8 21
-8 37 -2 18 7 19 10 7 10 -21 1 -24 17 -5 24 7 3 5 6 -5 6 -10 1 -18 6 -18 11
0 6 -6 10 -14 10 -8 0 -21 6 -28 13 -7 7 -35 24 -63 37 -27 13 -66 33 -85 45
-49 30 -134 55 -186 55 -33 0 -46 5 -54 19 -13 25 -13 44 0 36 6 -3 10 -1 10
5 0 27 254 -15 329 -55 14 -7 50 -39 80 -70 62 -66 81 -66 26 0 -38 47 -85 82
-140 103 -107 42 -403 67 -517 44z m186 -44 c3 -13 1 -27 -4 -32 -7 -7 -10 -6
-10 1 0 5 -10 8 -23 6 -14 -3 -29 2 -36 11 -12 14 -10 16 10 17 13 1 27 1 32
0 4 0 7 4 7 9 0 19 18 10 24 -12z m-79 -28 c-3 -5 -16 -10 -28 -9 -21 0 -21 1
-2 9 28 12 37 12 30 0z m-85 -24 c0 -3 -4 -8 -10 -11 -5 -3 -10 -1 -10 4 0 6
5 11 10 11 6 0 10 -2 10 -4z m260 -92 c0 -14 -21 -19 -33 -7 -9 9 13 34 24 27
5 -3 9 -12 9 -20z m57 -21 c-3 -10 -5 -4 -5 12 0 17 2 24 5 18 2 -7 2 -21 0
-30z m20 0 c-3 -10 -5 -4 -5 12 0 17 2 24 5 18 2 -7 2 -21 0 -30z"/>
<path d="M3490 8995 c0 -35 25 -155 32 -155 4 0 8 -9 8 -20 0 -36 19 -21 33
28 13 41 13 51 -1 77 -35 70 -72 106 -72 70z"/>
<path d="M7231 8829 c-17 -17 -34 -42 -37 -56 -8 -29 0 -102 18 -158 l12 -40
7 85 c8 93 24 166 39 175 13 8 13 25 1 25 -5 0 -23 -14 -40 -31z"/>
<path d="M4710 8751 c0 -5 6 -11 13 -14 8 -3 14 1 14 9 0 8 -6 14 -14 14 -7 0
-13 -4 -13 -9z"/>
<path d="M6980 8160 c0 -5 5 -10 10 -10 6 0 10 5 10 10 0 6 -4 10 -10 10 -5 0
-10 -4 -10 -10z"/>
<path d="M5077 7856 c-7 -18 45 -56 77 -56 36 0 41 16 12 45 -28 27 -80 34
-89 11z"/>
<path d="M5542 7841 c-49 -46 -38 -68 18 -36 14 8 35 14 48 15 27 0 29 25 3
40 -28 15 -33 13 -69 -19z"/>
<path d="M5088 7213 c-17 -7 -41 -13 -54 -13 -12 0 -26 -4 -29 -10 -3 -5 -15
-10 -26 -10 -10 0 -19 -4 -19 -9 0 -5 -15 -12 -34 -15 -19 -4 -61 -23 -93 -42
-54 -33 -62 -35 -114 -29 -54 6 -56 6 -56 -17 0 -21 4 -23 66 -27 86 -5 104
-5 175 8 38 6 77 6 110 0 28 -5 70 -11 93 -13 23 -2 47 -7 54 -12 7 -4 81 -8
165 -9 83 -1 156 -5 162 -9 6 -3 17 1 25 9 11 10 25 13 47 8 24 -4 35 -2 41 9
7 13 28 15 106 14 54 0 103 -4 108 -7 10 -7 54 -4 93 5 40 9 107 10 123 1 8
-4 4 3 -8 16 -18 19 -32 23 -75 21 -41 -1 -67 6 -117 31 -40 20 -79 32 -106
32 -30 0 -50 7 -74 28 -19 15 -45 27 -61 27 -16 0 -30 4 -32 9 -3 10 -28 14
-68 12 -16 -1 -21 -4 -13 -9 7 -4 -15 -8 -48 -8 -43 0 -65 -4 -73 -15 -13 -17
-77 -18 -98 -2 -7 6 -32 14 -55 18 -24 4 -43 11 -43 15 0 12 -35 8 -72 -7z"/>
<path d="M5240 6770 c0 -5 5 -10 10 -10 6 0 10 5 10 10 0 6 -4 10 -10 10 -5 0
-10 -4 -10 -10z"/>
<path d="M5273 6768 c-5 -10 -7 -9 49 -14 26 -2 49 0 52 5 3 5 -17 11 -45 13
-28 1 -53 0 -56 -4z"/>
<path d="M5345 6660 c-3 -5 -1 -10 4 -10 6 0 11 5 11 10 0 6 -2 10 -4 10 -3 0
-8 -4 -11 -10z"/>
<path d="M6400 6579 c0 -5 5 -7 10 -4 6 3 10 8 10 11 0 2 -4 4 -10 4 -5 0 -10
-5 -10 -11z"/>
<path d="M6333 6467 c-18 -25 -33 -49 -33 -54 -1 -15 -35 -48 -62 -60 -26 -12
-28 -11 -36 20 l-9 32 -7 -37 c-7 -39 -26 -53 -47 -35 -11 10 -11 9 0 -5 7 -9
11 -25 8 -35 -3 -14 -7 -12 -17 12 -11 25 -14 27 -18 11 -2 -10 0 -21 5 -25
10 -6 25 -41 18 -41 -13 0 -35 36 -35 58 l-1 27 -14 -30 c-7 -16 -14 -25 -14
-19 -1 17 -33 27 -42 12 -4 -6 -5 -16 -2 -21 3 -5 9 -3 14 4 7 11 9 10 9 -3 0
-9 -6 -23 -13 -30 -8 -7 -16 -20 -20 -28 -5 -13 -6 -13 -6 1 -1 8 4 20 11 27
6 6 9 15 5 18 -6 6 -37 -19 -37 -31 0 -7 -26 -35 -33 -35 -2 0 -3 21 -2 48 2
31 1 34 -2 10 -2 -21 -8 -38 -13 -38 -5 0 -12 -10 -16 -22 -6 -20 -8 -20 -19
-5 -13 18 -30 24 -20 7 3 -6 0 -17 -8 -25 -9 -8 -17 -20 -19 -25 -2 -8 -11 -8
-32 -1 -15 6 -33 8 -39 4 -13 -8 56 -30 158 -48 100 -19 144 -20 127 -3 -15
15 4 52 51 96 9 9 17 22 17 29 0 7 7 13 16 13 8 0 13 4 10 9 -9 13 44 61 67
61 11 0 17 3 14 7 -4 3 7 14 23 24 17 11 30 27 30 38 0 11 4 21 8 23 18 7 63
78 60 94 -2 12 -12 3 -35 -29z"/>
<path d="M6140 6405 c0 -5 5 -17 10 -25 5 -8 10 -10 10 -5 0 6 -5 17 -10 25
-5 8 -10 11 -10 5z"/>
<path d="M6110 6371 c0 -5 5 -13 10 -16 6 -3 10 -2 10 4 0 5 -4 13 -10 16 -5
3 -10 2 -10 -4z"/>
<path d="M6642 6258 c-1 -40 -5 -116 -8 -169 -6 -88 -5 -98 12 -107 22 -11
184 -23 184 -14 0 10 -78 231 -86 245 -22 36 -86 117 -93 117 -4 0 -9 -33 -9
-72z"/>
<path d="M4068 6266 c-49 -62 -87 -144 -123 -268 -19 -68 -42 -128 -51 -135
-9 -7 -37 -15 -63 -18 -75 -10 -101 -25 -156 -92 -35 -42 -75 -77 -121 -104
-38 -23 -96 -57 -129 -77 -33 -20 -88 -63 -123 -96 -113 -109 -243 -186 -487
-291 -60 -26 -115 -51 -121 -56 -11 -9 -146 -45 -279 -74 -105 -23 -143 -43
-210 -113 -72 -76 -88 -99 -74 -107 7 -5 -1 -20 -22 -41 -34 -35 -62 -48 -38
-17 9 11 2 9 -19 -6 -19 -13 -36 -30 -39 -37 -3 -8 -8 -14 -12 -14 -3 0 -54
-46 -112 -102 -59 -57 -130 -124 -158 -151 -29 -26 -49 -52 -46 -57 3 -5 0 -8
-7 -5 -7 3 -33 -14 -58 -37 -25 -24 -68 -61 -95 -82 -63 -49 -168 -160 -190
-200 l-17 -31 26 28 c30 33 43 36 22 5 -20 -28 -20 -38 -1 -38 20 0 19 -29 0
-36 -12 -5 -13 -10 -4 -20 8 -9 8 -14 1 -14 -6 0 -14 -9 -17 -21 -5 -16 -10
-18 -21 -8 -10 8 -14 8 -15 0 -3 -21 -5 -26 -21 -51 -15 -22 -27 -78 -58 -270
-4 -30 -11 -107 -14 -170 -3 -63 -9 -126 -12 -139 -6 -21 -5 -22 14 -12 18 10
20 8 20 -24 0 -19 -4 -37 -9 -40 -5 -3 -11 -29 -15 -56 -5 -33 -10 -46 -15
-37 -7 10 -9 10 -9 -2 0 -28 12 -60 21 -54 5 3 9 -11 9 -30 0 -19 5 -38 11
-42 6 -4 9 -19 5 -36 -9 -43 3 -78 25 -78 23 0 22 8 24 -215 1 -186 9 -304 26
-389 6 -29 6 -53 0 -60 -5 -6 -14 -74 -20 -151 -11 -143 -3 -395 20 -625 20
-209 110 -790 154 -1005 19 -88 19 -131 1 -248 -8 -50 -18 -120 -21 -154 l-7
-63 4556 0 c4332 0 4556 1 4556 18 0 9 -7 109 -15 222 -8 117 -11 263 -8 340
6 139 -12 333 -43 465 -9 39 -14 122 -14 238 0 152 3 191 22 260 32 123 30
306 -6 447 -48 188 -136 460 -216 670 -29 74 -67 178 -85 230 -39 112 -65 181
-133 350 -27 69 -57 157 -65 195 -9 39 -25 99 -36 133 -12 35 -32 125 -46 200
-31 165 -51 230 -120 387 -29 66 -58 145 -64 176 -15 70 -58 123 -132 163 -30
16 -90 61 -134 101 -44 39 -120 102 -170 140 -49 38 -117 93 -150 123 -105 97
-208 174 -270 202 -38 18 -100 34 -166 44 -59 8 -117 20 -130 25 -13 5 -58 39
-99 75 -109 96 -248 163 -366 175 -79 9 -102 17 -209 70 -66 34 -127 61 -136
61 -44 0 -277 88 -384 144 -66 35 -156 77 -200 94 -44 17 -110 44 -147 61 -79
37 -82 37 -67 9 9 -16 14 -103 17 -270 l5 -247 -32 -67 c-25 -53 -53 -88 -141
-175 -61 -59 -130 -121 -153 -136 -49 -33 -44 -9 -76 -359 -32 -336 -56 -435
-159 -641 -74 -146 -136 -239 -206 -308 -95 -93 -138 -180 -180 -365 -20 -85
-36 -165 -36 -178 0 -12 -5 -22 -12 -22 -6 0 -75 15 -152 34 -78 19 -163 38
-191 41 -60 8 -437 113 -530 148 -22 8 -76 25 -120 37 -184 51 -216 62 -325
113 -41 19 -96 42 -121 51 -26 9 -55 26 -64 36 -10 11 -24 20 -32 20 -8 0 -11
5 -8 11 5 7 14 5 28 -6 46 -33 82 -55 93 -55 6 0 15 19 21 43 6 23 22 74 36
112 14 39 33 108 42 155 9 47 26 128 38 180 16 70 22 126 21 210 0 107 -3 122
-36 210 -19 52 -60 151 -90 220 -73 167 -76 174 -93 255 -24 117 -12 346 25
477 l11 37 -138 138 c-143 142 -195 219 -222 320 -9 34 -71 429 -71 456 0 16
-16 6 -42 -27z m-2612 -2321 c-25 -19 -41 -19 -24 0 7 8 20 14 28 14 11 0 10
-3 -4 -14z m2969 -382 c-11 -3 -26 -12 -32 -21 -11 -14 -13 -14 -13 -1 0 22
10 29 39 28 21 -1 22 -2 6 -6z m5512 -25 c-3 -8 -6 -5 -6 6 -1 11 2 17 5 13 3
-3 4 -12 1 -19z m10 -40 c-3 -8 -6 -5 -6 6 -1 11 2 17 5 13 3 -3 4 -12 1 -19z
m-5578 -282 c-6 -26 -13 -45 -16 -43 -2 3 1 26 8 51 6 26 13 45 16 43 2 -3 -1
-26 -8 -51z m-19 -64 c0 -5 -7 -17 -16 -28 -8 -10 -14 -14 -11 -9 2 6 7 18 10
28 7 17 17 23 17 9z m-30 -61 c0 -5 -9 -19 -20 -32 l-20 -24 17 32 c19 34 23
39 23 24z m-104 -218 c-8 -15 -15 -25 -16 -21 0 12 23 58 27 54 3 -2 -2 -17
-11 -33z m-46 -172 c0 -10 -18 -41 -40 -69 -22 -27 -47 -63 -55 -79 -8 -15
-15 -22 -15 -14 0 8 18 38 41 68 22 30 45 67 51 83 11 34 18 38 18 11z m-200
-355 c0 -2 -7 -7 -16 -10 -8 -3 -12 -2 -9 4 6 10 25 14 25 6z m-75 -57 c-20
-22 -50 -62 -66 -87 -16 -25 -29 -42 -29 -36 0 22 110 164 126 164 4 0 -10
-18 -31 -41z m-1925 -183 c0 -2 -7 -7 -16 -10 -8 -3 -12 -2 -9 4 6 10 25 14
25 6z m1893 -461 c-3 -9 -8 -14 -10 -11 -3 3 -2 9 2 15 9 16 15 13 8 -4z
m-2283 -765 l-8 -35 -1 31 c-1 17 2 34 6 37 11 12 12 3 3 -33z m1747 -247 c-3
-10 -5 -4 -5 12 0 17 2 24 5 18 2 -7 2 -21 0 -30z m-215 -465 c-7 -7 -12 -8
-12 -2 0 14 12 26 19 19 2 -3 -1 -11 -7 -17z"/>
<path d="M5811 6231 c-8 -6 -9 -11 -3 -15 6 -3 14 -1 17 5 9 14 2 20 -14 10z"/>
<path d="M5800 6180 c-8 -5 -10 -10 -5 -10 6 0 17 5 25 10 8 5 11 10 5 10 -5
0 -17 -5 -25 -10z"/>
<path d="M5630 6148 c0 -4 19 -8 42 -8 23 0 39 2 36 5 -9 9 -78 12 -78 3z"/>
<path d="M4720 6133 c1 -19 81 -74 103 -70 20 3 20 4 -8 16 -16 7 -45 24 -62
37 -18 14 -33 21 -33 17z"/>
<path d="M5015 6130 c-3 -5 -1 -10 4 -10 6 0 11 5 11 10 0 6 -2 10 -4 10 -3 0
-8 -4 -11 -10z"/>
<path d="M4979 6084 c-13 -15 -18 -25 -10 -22 13 4 49 48 39 48 -2 0 -15 -12
-29 -26z"/>
<path d="M6624 5455 c-10 -24 -14 -69 -13 -147 1 -94 3 -104 9 -61 13 89 9 86
100 78 50 -4 80 -3 80 3 0 5 -25 12 -55 14 -30 3 -58 8 -62 12 -15 14 -11 101
4 119 15 16 14 17 -16 17 -27 0 -34 -5 -47 -35z"/>
<path d="M1307 4043 c-4 -3 -7 -11 -7 -17 0 -6 5 -5 12 2 6 6 9 14 7 17 -3 3
-9 2 -12 -2z"/>
<path d="M1335 4030 c-3 -5 -1 -10 4 -10 6 0 11 5 11 10 0 6 -2 10 -4 10 -3 0
-8 -4 -11 -10z"/>
<path d="M1268 3968 c-24 -56 -17 -58 10 -3 12 25 18 45 14 45 -4 0 -15 -19
-24 -42z"/>
<path d="M1217 3864 c-10 -19 -13 -33 -8 -29 13 8 41 65 32 65 -4 0 -15 -16
-24 -36z"/>
<path d="M1204 3773 c-3 -12 -12 -19 -19 -17 -7 3 -20 -2 -29 -11 -34 -34 -47
-76 -47 -145 0 -111 21 -324 33 -335 8 -7 9 -5 5 7 -3 9 1 22 8 28 9 7 14 28
13 49 0 20 2 46 6 59 5 14 3 29 -5 38 -9 11 -9 20 -1 37 18 35 41 110 37 117
-2 4 2 45 9 91 9 52 10 88 5 94 -6 6 -12 2 -15 -12z"/>
<path d="M1180 3290 c0 -5 5 -10 11 -10 5 0 7 5 4 10 -3 6 -8 10 -11 10 -2 0
-4 -4 -4 -10z"/>
<path d="M1193 2995 c0 -22 2 -30 4 -17 2 12 2 30 0 40 -3 9 -5 -1 -4 -23z"/>
<path d="M1230 2843 c0 -41 14 -36 25 10 6 21 4 27 -9 27 -12 0 -16 -10 -16
-37z"/>
<path d="M1221 2765 c-3 -35 -4 -37 -10 -15 -7 23 -8 21 -14 -15 -4 -22 -9
-60 -11 -85 -4 -40 -4 -41 3 -10 l8 35 3 -35 c2 -19 2 -46 1 -58 -1 -13 5 -35
14 -49 10 -15 15 -40 13 -64 -2 -21 2 -39 7 -39 15 0 30 349 16 363 -8 8 -11
-2 -13 -33 l-1 -45 -7 45 -7 45 -2 -40z"/>
<path d="M1176 2725 c-9 -26 -7 -32 5 -12 6 10 9 21 6 23 -2 3 -7 -2 -11 -11z"/>
<path d="M1192 2520 c0 -14 2 -19 5 -12 2 6 2 18 0 25 -3 6 -5 1 -5 -13z"/>
<path d="M1237 2230 c3 -36 9 -72 14 -80 10 -16 3 50 -12 110 -5 24 -6 15 -2
-30z"/>
</g>
</svg>
